<?xml version="1.0" encoding="utf-8"?>
<!-- Generator: Adobe Illustrator 18.1.1, SVG Export Plug-In . SVG Version: 6.00 Build 0)  -->
<svg version="1.1" id="Layer_1" xmlns="http://www.w3.org/2000/svg" xmlns:xlink="http://www.w3.org/1999/xlink" x="0px" y="0px"
	 viewBox="0 0 497.605 414.003" style="enable-background:new 0 0 497.605 414.003;" xml:space="preserve">
<style type="text/css">
	.st0{fill:#FFFFFF;}
	.st1{fill:url(#SVGID_1_);}
	.st2{fill:url(#SVGID_2_);}
	.st3{fill:url(#SVGID_3_);}
	.st4{fill:url(#SVGID_4_);}
	.st5{fill:url(#SVGID_5_);}
	.st6{fill:url(#SVGID_6_);}
	.st7{fill:url(#SVGID_7_);}
	.st8{fill:url(#SVGID_8_);}
	.st9{fill:url(#SVGID_9_);}
	.st10{fill:url(#SVGID_10_);}
	.st11{fill:url(#SVGID_11_);}
	.st12{fill:url(#SVGID_12_);}
	.st13{fill:url(#SVGID_13_);}
	.st14{fill:url(#SVGID_14_);}
	.st15{fill:url(#SVGID_15_);}
	.st16{fill:url(#SVGID_16_);}
	.st17{fill:url(#SVGID_17_);}
	.st18{fill:url(#SVGID_18_);}
	.st19{fill:url(#SVGID_19_);}
	.st20{fill:url(#SVGID_20_);}
	.st21{fill:url(#SVGID_21_);}
	.st22{fill:url(#SVGID_22_);}
	.st23{fill:url(#SVGID_23_);}
	.st24{fill:url(#SVGID_24_);}
	.st25{fill:url(#SVGID_25_);}
	.st26{fill:url(#SVGID_26_);}
	.st27{fill:url(#SVGID_27_);}
	.st28{fill:url(#SVGID_28_);}
	.st29{fill:url(#SVGID_29_);}
	.st30{fill:url(#SVGID_30_);}
	.st31{fill:url(#SVGID_31_);}
	.st32{fill:url(#SVGID_32_);}
	.st33{fill:url(#SVGID_33_);}
	.st34{fill:url(#SVGID_34_);}
	.st35{fill:url(#SVGID_35_);}
	.st36{fill:url(#SVGID_36_);}
	.st37{fill:url(#SVGID_37_);}
	.st38{fill:url(#SVGID_38_);}
	.st39{fill:url(#SVGID_39_);}
	.st40{fill:url(#SVGID_40_);}
	.st41{fill:url(#SVGID_41_);}
	.st42{clip-path:url(#SVGID_43_);fill:#006633;}
	.st43{clip-path:url(#SVGID_43_);}
	.st44{fill:#006633;}
	.st45{fill-rule:evenodd;clip-rule:evenodd;fill:#006633;}
</style>
<g>
	<g id="white">
		
			<image style="overflow:visible;opacity:0.15;" width="1037" height="851" xlink:href="1F87700656AD31BC.png"  transform="matrix(0.48 0 0 0.48 0.8652 13.1003)">
		</image>
		<g>
			<g>
				<path class="st0" d="M241.605,29.031c-124.159,0-224.809,100.651-224.809,224.809c0,49.665,18.911,98.356,46.184,135.56
					c48.227-19.177,147.112-51.738,257.108-42.518c-0.061-0.04-0.123-0.078-0.185-0.117c36.942,3.234,73.681,9.345,115.262,19.392
					c18.116-32.407,31.249-72.55,31.249-112.317C466.413,129.682,365.764,29.031,241.605,29.031z"/>
			</g>
		</g>
	</g>
	<g>
		<g id="sun_x5F_rays">
			
				<radialGradient id="SVGID_1_" cx="256.5017" cy="252.6141" r="214.5175" gradientTransform="matrix(0.6876 0 0 1 65.8779 0)" gradientUnits="userSpaceOnUse">
				<stop  offset="0" style="stop-color:#FFFFFF"/>
				<stop  offset="1" style="stop-color:#99CC33"/>
			</radialGradient>
			<path class="st1" d="M244.022,144.316l2.232-107.537h-4.463h-4.463l2.23,107.537l2.097,101.048
				c0.091,0.013,0.18,0.023,0.269,0.034L244.022,144.316z"/>
			
				<radialGradient id="SVGID_2_" cx="251.4736" cy="254.555" r="214.5091" gradientTransform="matrix(0.6849 -0.0599 0.0872 0.9962 47.9095 14.0454)" gradientUnits="userSpaceOnUse">
				<stop  offset="0" style="stop-color:#FFFFFF"/>
				<stop  offset="1" style="stop-color:#99CC33"/>
			</radialGradient>
			<path class="st2" d="M234.662,144.53L227.51,37.207l-4.445,0.389l-4.445,0.39l11.595,106.933L241.1,245.293
				c0.093,0.012,0.184,0.023,0.276,0.036L234.662,144.53z"/>
			
				<radialGradient id="SVGID_3_" cx="246.3321" cy="256.8522" r="214.517" gradientTransform="matrix(0.6771 -0.1194 0.1736 0.9848 31.021 28.9858)" gradientUnits="userSpaceOnUse">
				<stop  offset="0" style="stop-color:#FFFFFF"/>
				<stop  offset="1" style="stop-color:#99CC33"/>
			</radialGradient>
			<path class="st3" d="M225.354,145.559l-16.477-106.29l-4.393,0.774l-4.396,0.775l20.87,105.515l19.561,98.885
				c0.097,0.012,0.192,0.026,0.289,0.037L225.354,145.559z"/>
			
				<radialGradient id="SVGID_4_" cx="239.995" cy="258.822" r="214.4678" gradientTransform="matrix(0.6641 -0.178 0.2588 0.9659 16.1232 45.1871)" gradientUnits="userSpaceOnUse">
				<stop  offset="0" style="stop-color:#FFFFFF"/>
				<stop  offset="1" style="stop-color:#99CC33"/>
			</radialGradient>
			<path class="st4" d="M216.172,147.394L190.495,42.945l-4.311,1.157l-4.308,1.153l29.985,103.297l28.044,96.589
				c0.102,0.014,0.205,0.026,0.308,0.04L216.172,147.394z"/>
			
				<radialGradient id="SVGID_5_" cx="233.4862" cy="259.5649" r="214.4643" gradientTransform="matrix(0.6461 -0.2352 0.342 0.9397 2.927 63.4021)" gradientUnits="userSpaceOnUse">
				<stop  offset="0" style="stop-color:#FFFFFF"/>
				<stop  offset="1" style="stop-color:#99CC33"/>
			</radialGradient>
			<path class="st5" d="M207.186,150.026L172.502,48.21l-4.193,1.527l-4.193,1.525l38.876,100.289l36.247,93.504
				c0.111,0.015,0.222,0.03,0.334,0.043L207.186,150.026z"/>
			
				<radialGradient id="SVGID_6_" cx="227.635" cy="260.4647" r="214.5346" gradientTransform="matrix(0.6231 -0.2906 0.4226 0.9063 -9.2923 82.4219)" gradientUnits="userSpaceOnUse">
				<stop  offset="0" style="stop-color:#FFFFFF"/>
				<stop  offset="1" style="stop-color:#99CC33"/>
			</radialGradient>
			<path class="st6" d="M198.462,153.428l-43.425-98.405l-4.045,1.886l-4.043,1.886l47.468,96.519l44.093,89.648
				c0.122,0.016,0.246,0.033,0.368,0.048L198.462,153.428z"/>
			
				<radialGradient id="SVGID_7_" cx="220.9871" cy="260.8958" r="214.5676" gradientTransform="matrix(0.5954 -0.3438 0.5 0.866 -19.3412 102.2928)" gradientUnits="userSpaceOnUse">
				<stop  offset="0" style="stop-color:#FFFFFF"/>
				<stop  offset="1" style="stop-color:#99CC33"/>
			</radialGradient>
			<path class="st7" d="M190.069,157.579l-51.836-94.245l-3.864,2.229l-3.863,2.232l55.699,92.013l51.486,85.048
				c0.138,0.016,0.277,0.036,0.415,0.053L190.069,157.579z"/>
			
				<radialGradient id="SVGID_8_" cx="214.4454" cy="260.2343" r="214.4761" gradientTransform="matrix(0.5632 -0.3944 0.5736 0.8192 -27.3158 123.5669)" gradientUnits="userSpaceOnUse">
				<stop  offset="0" style="stop-color:#FFFFFF"/>
				<stop  offset="1" style="stop-color:#99CC33"/>
			</radialGradient>
			<path class="st8" d="M182.069,162.445l-59.853-89.369l-3.657,2.558l-3.654,2.56l63.507,86.81l58.337,79.737
				c0.159,0.019,0.317,0.037,0.475,0.057L182.069,162.445z"/>
			
				<radialGradient id="SVGID_9_" cx="207.2762" cy="260.4909" r="214.4761" gradientTransform="matrix(0.5267 -0.442 0.6428 0.766 -33.8316 144.1629)" gradientUnits="userSpaceOnUse">
				<stop  offset="0" style="stop-color:#FFFFFF"/>
				<stop  offset="1" style="stop-color:#99CC33"/>
			</radialGradient>
			<path class="st9" d="M174.523,167.99L107.11,84.177l-3.419,2.868l-3.418,2.869l70.833,80.944l64.542,73.755
				c0.188,0.022,0.374,0.043,0.561,0.066L174.523,167.99z"/>
			
				<radialGradient id="SVGID_10_" cx="201.3948" cy="259.2953" r="214.4604" gradientTransform="matrix(0.4862 -0.4862 0.7071 0.7071 -38.4509 166.5733)" gradientUnits="userSpaceOnUse">
				<stop  offset="0" style="stop-color:#FFFFFF"/>
				<stop  offset="1" style="stop-color:#99CC33"/>
			</radialGradient>
			<path class="st10" d="M167.49,174.17L93.027,96.553l-3.155,3.154l-3.153,3.156l77.613,74.463l69.98,67.129
				c0.228,0.026,0.457,0.054,0.685,0.08L167.49,174.17z"/>
			
				<radialGradient id="SVGID_11_" cx="195.701" cy="257.9939" r="214.5223" gradientTransform="matrix(0.442 -0.5267 0.766 0.6428 -41.2875 189.1578)" gradientUnits="userSpaceOnUse">
				<stop  offset="0" style="stop-color:#FFFFFF"/>
				<stop  offset="1" style="stop-color:#99CC33"/>
			</radialGradient>
			<path class="st11" d="M161.023,180.942l-80.944-70.832l-2.869,3.416l-2.868,3.419l83.81,67.415l74.472,59.899
				c0.291,0.032,0.582,0.069,0.871,0.102L161.023,180.942z"/>
			
				<radialGradient id="SVGID_12_" cx="189.4378" cy="255.8359" r="214.4929" gradientTransform="matrix(0.3944 -0.5632 0.8192 0.5736 -41.4296 211.7628)" gradientUnits="userSpaceOnUse">
				<stop  offset="0" style="stop-color:#FFFFFF"/>
				<stop  offset="1" style="stop-color:#99CC33"/>
			</radialGradient>
			<path class="st12" d="M155.169,188.25L68.36,124.742l-2.561,3.653l-2.56,3.657l89.368,59.854l77.816,52.113
				c0.381,0.042,0.762,0.08,1.143,0.121L155.169,188.25z"/>
			
				<radialGradient id="SVGID_13_" cx="184.2935" cy="254.5495" r="214.5471" gradientTransform="matrix(0.3438 -0.5954 0.866 0.5 -40.924 234.1811)" gradientUnits="userSpaceOnUse">
				<stop  offset="0" style="stop-color:#FFFFFF"/>
				<stop  offset="1" style="stop-color:#99CC33"/>
			</radialGradient>
			<path class="st13" d="M149.974,196.041l-92.012-55.703l-2.233,3.866l-2.231,3.864l94.243,51.837l79.618,43.788
				c0.539,0.055,1.081,0.115,1.621,0.173L149.974,196.041z"/>
			
				<radialGradient id="SVGID_14_" cx="178.4439" cy="252.286" r="214.5236" gradientTransform="matrix(0.2906 -0.6231 0.9063 0.4226 -37.6192 256.1997)" gradientUnits="userSpaceOnUse">
				<stop  offset="0" style="stop-color:#FFFFFF"/>
				<stop  offset="1" style="stop-color:#99CC33"/>
			</radialGradient>
			<path class="st14" d="M145.481,204.255l-96.518-47.472l-1.889,4.046l-1.886,4.044l98.403,43.427l79.223,34.958
				c0.813,0.075,1.629,0.154,2.446,0.233L145.481,204.255z"/>
			
				<radialGradient id="SVGID_15_" cx="172.5708" cy="249.6409" r="214.4921" gradientTransform="matrix(0.2352 -0.6461 0.9397 0.342 -32.3196 277.6589)" gradientUnits="userSpaceOnUse">
				<stop  offset="0" style="stop-color:#FFFFFF"/>
				<stop  offset="1" style="stop-color:#99CC33"/>
			</radialGradient>
			<path class="st15" d="M443.688,325.117l1.526-4.196l-22.191-7.559c6.629,4.494,13.216,9.243,19.751,14.255L443.688,325.117z"/>
			
				<radialGradient id="SVGID_16_" cx="172.592" cy="249.6615" r="214.4935" gradientTransform="matrix(0.2352 -0.6461 0.9397 0.342 -32.3196 277.6589)" gradientUnits="userSpaceOnUse">
				<stop  offset="0" style="stop-color:#FFFFFF"/>
				<stop  offset="1" style="stop-color:#99CC33"/>
			</radialGradient>
			<path class="st16" d="M141.72,212.83L41.43,173.952l-1.528,4.195l-1.526,4.192l101.814,34.685l75.188,25.61
				c1.357,0.104,2.719,0.214,4.081,0.33L141.72,212.83z"/>
			
				<radialGradient id="SVGID_17_" cx="168.2443" cy="246.9316" r="214.4879" gradientTransform="matrix(0.178 -0.6641 0.9659 0.2588 -25.6035 299.274)" gradientUnits="userSpaceOnUse">
				<stop  offset="0" style="stop-color:#FFFFFF"/>
				<stop  offset="1" style="stop-color:#99CC33"/>
			</radialGradient>
			<path class="st17" d="M448.167,311.553l1.161-4.315l1.153-4.311l-79.624-19.575c8.259,3.968,16.492,8.266,24.686,12.921
				L448.167,311.553z"/>
			
				<radialGradient id="SVGID_18_" cx="168.2592" cy="246.9391" r="214.5187" gradientTransform="matrix(0.178 -0.6641 0.9659 0.2588 -25.6035 299.274)" gradientUnits="userSpaceOnUse">
				<stop  offset="0" style="stop-color:#FFFFFF"/>
				<stop  offset="1" style="stop-color:#99CC33"/>
			</radialGradient>
			<path class="st18" d="M138.717,221.7L35.424,191.711l-1.158,4.309l-1.155,4.311l104.449,25.68l64.142,15.766
				c2.551,0.123,5.115,0.272,7.685,0.437L138.717,221.7z"/>
			
				<radialGradient id="SVGID_19_" cx="163.2539" cy="244.0638" r="214.4841" gradientTransform="matrix(0.1194 -0.6771 0.9848 0.1736 -17.0107 319.5299)" gradientUnits="userSpaceOnUse">
				<stop  offset="0" style="stop-color:#FFFFFF"/>
				<stop  offset="1" style="stop-color:#99CC33"/>
			</radialGradient>
			<path class="st19" d="M347.089,272.461l105.517,20.874l0.778-4.396l0.773-4.395l-106.291-16.479l-23.591-3.656
				c6.959,2.345,13.922,4.898,20.879,7.669L347.089,272.461z"/>
			
				<radialGradient id="SVGID_20_" cx="163.2883" cy="244.0715" r="214.4677" gradientTransform="matrix(0.1194 -0.6771 0.9848 0.1736 -17.0107 319.5299)" gradientUnits="userSpaceOnUse">
				<stop  offset="0" style="stop-color:#FFFFFF"/>
				<stop  offset="1" style="stop-color:#99CC33"/>
			</radialGradient>
			<path class="st20" d="M189.838,241.347l-53.336-10.549L30.988,209.925l-0.777,4.396l-0.775,4.393l106.29,16.48l38.695,5.996
				C179.51,241.166,184.651,241.217,189.838,241.347z"/>
			
				<radialGradient id="SVGID_21_" cx="160.6454" cy="240.7264" r="214.4795" gradientTransform="matrix(0.0599 -0.6849 0.9962 0.0872 -6.6244 340.2849)" gradientUnits="userSpaceOnUse">
				<stop  offset="0" style="stop-color:#FFFFFF"/>
				<stop  offset="1" style="stop-color:#99CC33"/>
			</radialGradient>
			<path class="st21" d="M348.503,263.203l106.939,11.599l0.387-4.446l0.387-4.447l-107.32-7.15l-56.769-3.782
				c4.41,1.108,8.826,2.287,13.248,3.55L348.503,263.203z"/>
			
				<radialGradient id="SVGID_22_" cx="160.6221" cy="240.7346" r="214.5213" gradientTransform="matrix(0.0599 -0.6849 0.9962 0.0872 -6.6244 340.2849)" gradientUnits="userSpaceOnUse">
				<stop  offset="0" style="stop-color:#FFFFFF"/>
				<stop  offset="1" style="stop-color:#99CC33"/>
			</radialGradient>
			<path class="st22" d="M135.088,240.053L28.153,228.456l-0.389,4.447l-0.39,4.445l96.577,6.436
				c8.86-0.86,17.964-1.534,27.279-1.98L135.088,240.053z"/>
			
				<radialGradient id="SVGID_23_" cx="155.4457" cy="237.0278" r="214.4774" gradientTransform="matrix(0 -0.6876 1 0 5.7454 358.0565)" gradientUnits="userSpaceOnUse">
				<stop  offset="0" style="stop-color:#FFFFFF"/>
				<stop  offset="1" style="stop-color:#99CC33"/>
			</radialGradient>
			<path class="st23" d="M349.11,249.395l-74.562,1.549c2.326,0.483,4.656,0.989,6.99,1.513l67.571,1.401l107.538,2.236v-4.464
				v-4.463L349.11,249.395z"/>
			
				<radialGradient id="SVGID_24_" cx="155.4496" cy="237.0349" r="214.4909" gradientTransform="matrix(0 -0.6876 1 0 5.7454 358.0565)" gradientUnits="userSpaceOnUse">
				<stop  offset="0" style="stop-color:#FFFFFF"/>
				<stop  offset="1" style="stop-color:#99CC33"/>
			</radialGradient>
			<path class="st24" d="M26.948,247.164l-0.002,4.463v4.462l23.609-0.489c11.529-2.593,24.006-5.047,37.276-7.173L26.948,247.164z"
				/>
			
				<radialGradient id="SVGID_25_" cx="152.7421" cy="232.9771" r="214.4764" gradientTransform="matrix(-0.0599 -0.6849 0.9962 -0.0872 19.7909 376.0253)" gradientUnits="userSpaceOnUse">
				<stop  offset="0" style="stop-color:#FFFFFF"/>
				<stop  offset="1" style="stop-color:#99CC33"/>
			</radialGradient>
			<path class="st25" d="M348.894,244.495l107.327-7.146l-0.389-4.446l-0.389-4.447l-106.936,11.593l-83.378,9.043
				c1.282,0.239,2.564,0.478,3.849,0.729L348.894,244.495z"/>
			
				<radialGradient id="SVGID_26_" cx="150.7782" cy="229.4434" r="214.4769" gradientTransform="matrix(-0.1194 -0.6771 0.9848 -0.1736 34.7313 392.9189)" gradientUnits="userSpaceOnUse">
				<stop  offset="0" style="stop-color:#FFFFFF"/>
				<stop  offset="1" style="stop-color:#99CC33"/>
			</radialGradient>
			<path class="st26" d="M347.866,235.187l106.294-16.473l-0.775-4.396l-0.778-4.395l-105.514,20.868l-87.493,17.31
				c0.779,0.135,1.56,0.27,2.338,0.408L347.866,235.187z"/>
			
				<radialGradient id="SVGID_27_" cx="148.2487" cy="225.7844" r="214.4795" gradientTransform="matrix(-0.178 -0.6641 0.9659 -0.2588 50.9326 407.8122)" gradientUnits="userSpaceOnUse">
				<stop  offset="0" style="stop-color:#FFFFFF"/>
				<stop  offset="1" style="stop-color:#99CC33"/>
			</radialGradient>
			<path class="st27" d="M346.03,226.005l104.455-25.675l-1.158-4.31l-1.154-4.312l-103.297,29.986l-88.862,25.803
				c0.52,0.087,1.042,0.167,1.568,0.255L346.03,226.005z"/>
			
				<radialGradient id="SVGID_28_" cx="146.2881" cy="221.1562" r="214.4774" gradientTransform="matrix(-0.2352 -0.6461 0.9397 -0.342 69.1481 421.0078)" gradientUnits="userSpaceOnUse">
				<stop  offset="0" style="stop-color:#FFFFFF"/>
				<stop  offset="1" style="stop-color:#99CC33"/>
			</radialGradient>
			<path class="st28" d="M343.398,217.017l101.823-34.681l-1.526-4.193l-1.529-4.194l-100.29,38.875l-88.38,34.264
				c0.372,0.059,0.742,0.121,1.112,0.18L343.398,217.017z"/>
			
				<radialGradient id="SVGID_29_" cx="145.627" cy="216.9773" r="214.4779" gradientTransform="matrix(-0.2906 -0.6231 0.9063 -0.4226 88.1665 433.2272)" gradientUnits="userSpaceOnUse">
				<stop  offset="0" style="stop-color:#FFFFFF"/>
				<stop  offset="1" style="stop-color:#99CC33"/>
			</radialGradient>
			<path class="st29" d="M339.997,208.293l98.409-43.424l-1.887-4.044l-1.885-4.045l-96.522,47.466l-86.494,42.547
				c0.286,0.044,0.568,0.084,0.856,0.129L339.997,208.293z"/>
			
				<radialGradient id="SVGID_30_" cx="144.7937" cy="212.6593" r="214.4805" gradientTransform="matrix(-0.3438 -0.5954 0.866 -0.5 108.0373 443.277)" gradientUnits="userSpaceOnUse">
				<stop  offset="0" style="stop-color:#FFFFFF"/>
				<stop  offset="1" style="stop-color:#99CC33"/>
			</radialGradient>
			<path class="st30" d="M335.846,199.897l94.248-51.835l-2.228-3.863l-2.234-3.867l-92.017,55.699l-83.475,50.54
				c0.224,0.033,0.448,0.068,0.672,0.102L335.846,199.897z"/>
			
				<radialGradient id="SVGID_31_" cx="144.6718" cy="207.6222" r="214.4619" gradientTransform="matrix(-0.3944 -0.5632 0.8192 -0.5736 129.3119 451.2535)" gradientUnits="userSpaceOnUse">
				<stop  offset="0" style="stop-color:#FFFFFF"/>
				<stop  offset="1" style="stop-color:#99CC33"/>
			</radialGradient>
			<path class="st31" d="M330.978,191.895l89.374-59.852l-2.558-3.655l-2.562-3.656l-86.812,63.507l-79.475,58.151
				c0.184,0.028,0.369,0.057,0.554,0.083L330.978,191.895z"/>
			
				<radialGradient id="SVGID_32_" cx="144.4113" cy="203.8913" r="214.4843" gradientTransform="matrix(-0.442 -0.5267 0.766 -0.6428 149.9088 457.7703)" gradientUnits="userSpaceOnUse">
				<stop  offset="0" style="stop-color:#FFFFFF"/>
				<stop  offset="1" style="stop-color:#99CC33"/>
			</radialGradient>
			<path class="st32" d="M325.434,184.349l83.817-67.413l-2.866-3.42l-2.869-3.418L322.57,180.93l-74.626,65.31
				c0.157,0.023,0.316,0.047,0.468,0.071L325.434,184.349z"/>
			
				<radialGradient id="SVGID_33_" cx="145.9689" cy="199.1465" r="214.4781" gradientTransform="matrix(-0.4862 -0.4862 0.7071 -0.7071 172.3197 462.3896)" gradientUnits="userSpaceOnUse">
				<stop  offset="0" style="stop-color:#FFFFFF"/>
				<stop  offset="1" style="stop-color:#99CC33"/>
			</radialGradient>
			<path class="st33" d="M319.253,177.314l77.62-74.461l-3.153-3.156l-3.157-3.157L316.1,174.159l-69.021,71.954
				c0.137,0.02,0.274,0.04,0.409,0.058L319.253,177.314z"/>
			
				<radialGradient id="SVGID_34_" cx="148.1332" cy="194.7546" r="214.4844" gradientTransform="matrix(-0.5267 -0.442 0.6428 -0.766 194.9042 465.2263)" gradientUnits="userSpaceOnUse">
				<stop  offset="0" style="stop-color:#FFFFFF"/>
				<stop  offset="1" style="stop-color:#99CC33"/>
			</radialGradient>
			<path class="st34" d="M312.483,170.846l70.836-80.943l-3.415-2.87l-3.421-2.868l-67.417,83.81l-62.754,78.031
				c0.12,0.017,0.243,0.033,0.362,0.05L312.483,170.846z"/>
			
				<radialGradient id="SVGID_35_" cx="150.0403" cy="189.9874" r="214.4678" gradientTransform="matrix(-0.5632 -0.3944 0.5736 -0.8192 217.5097 465.3684)" gradientUnits="userSpaceOnUse">
				<stop  offset="0" style="stop-color:#FFFFFF"/>
				<stop  offset="1" style="stop-color:#99CC33"/>
			</radialGradient>
			<path class="st35" d="M305.174,164.992l63.512-86.808l-3.654-2.561l-3.659-2.56l-59.854,89.369l-55.897,83.479
				c0.109,0.016,0.219,0.03,0.33,0.046L305.174,164.992z"/>
			
				<radialGradient id="SVGID_36_" cx="153.4049" cy="186.5889" r="214.4833" gradientTransform="matrix(-0.5954 -0.3438 0.5 -0.866 239.9289 464.8658)" gradientUnits="userSpaceOnUse">
				<stop  offset="0" style="stop-color:#FFFFFF"/>
				<stop  offset="1" style="stop-color:#99CC33"/>
			</radialGradient>
			<path class="st36" d="M297.38,159.797l55.705-92.014l-3.863-2.233l-3.868-2.23l-51.839,94.245l-48.53,88.256
				c0.101,0.015,0.204,0.029,0.305,0.043L297.38,159.797z"/>
			
				<radialGradient id="SVGID_37_" cx="156.2758" cy="182.7292" r="214.4844" gradientTransform="matrix(-0.6231 -0.2906 0.4226 -0.9063 261.9504 461.5609)" gradientUnits="userSpaceOnUse">
				<stop  offset="0" style="stop-color:#FFFFFF"/>
				<stop  offset="1" style="stop-color:#99CC33"/>
			</radialGradient>
			<path class="st37" d="M289.166,155.301l47.474-96.518l-4.043-1.888l-4.045-1.887l-43.429,98.405l-40.733,92.324
				c0.095,0.014,0.193,0.029,0.288,0.04L289.166,155.301z"/>
			
				<radialGradient id="SVGID_38_" cx="159.3207" cy="179.0408" r="214.4808" gradientTransform="matrix(-0.6461 -0.2352 0.342 -0.9397 283.4076 456.2613)" gradientUnits="userSpaceOnUse">
				<stop  offset="0" style="stop-color:#FFFFFF"/>
				<stop  offset="1" style="stop-color:#99CC33"/>
			</radialGradient>
			<path class="st38" d="M280.589,151.539l38.882-100.289l-4.194-1.528l-4.193-1.526L276.4,150.012l-32.575,95.647
				c0.092,0.013,0.184,0.026,0.274,0.039L280.589,151.539z"/>
			
				<radialGradient id="SVGID_39_" cx="164.0004" cy="175.7927" r="214.4879" gradientTransform="matrix(-0.6641 -0.178 0.2588 -0.9659 305.0238 449.5453)" gradientUnits="userSpaceOnUse">
				<stop  offset="0" style="stop-color:#FFFFFF"/>
				<stop  offset="1" style="stop-color:#99CC33"/>
			</radialGradient>
			<path class="st39" d="M271.718,148.537L301.712,45.24l-4.311-1.156l-4.313-1.156l-25.678,104.453l-24.132,98.202
				c0.089,0.012,0.177,0.025,0.267,0.037L271.718,148.537z"/>
			
				<radialGradient id="SVGID_40_" cx="168.0434" cy="172.9424" r="214.4858" gradientTransform="matrix(-0.6771 -0.1194 0.1736 -0.9848 325.2807 440.9543)" gradientUnits="userSpaceOnUse">
				<stop  offset="0" style="stop-color:#FFFFFF"/>
				<stop  offset="1" style="stop-color:#99CC33"/>
			</radialGradient>
			<path class="st40" d="M262.622,146.322l20.875-105.519l-4.393-0.776l-4.398-0.774L258.23,145.545l-15.49,99.964
				c0.089,0.012,0.176,0.025,0.264,0.036L262.622,146.322z"/>
			
				<radialGradient id="SVGID_41_" cx="174.4157" cy="170.164" r="214.4803" gradientTransform="matrix(-0.6849 -0.0599 0.0872 -0.9962 346.0337 430.5662)" gradientUnits="userSpaceOnUse">
				<stop  offset="0" style="stop-color:#FFFFFF"/>
				<stop  offset="1" style="stop-color:#99CC33"/>
			</radialGradient>
			<path class="st41" d="M253.369,144.906l11.595-106.935l-4.439-0.391l-4.449-0.387l-7.152,107.323l-6.718,100.919
				c0.088,0.013,0.177,0.025,0.264,0.036L253.369,144.906z"/>
		</g>
		<g id="hills">
			<defs>
				<path id="SVGID_42_" d="M456.647,251.737c0,118.767-96.281,215.048-215.04,215.048c-118.768,0-215.047-96.281-215.047-215.048
					c0-118.768,96.279-215.048,215.047-215.048C360.366,36.689,456.647,132.969,456.647,251.737z"/>
			</defs>
			<clipPath id="SVGID_43_">
				<use xlink:href="#SVGID_42_"  style="overflow:visible;"/>
			</clipPath>
			<path id="b_x5F_hill" class="st42" d="M316.159,338.294c-65.864-32.044-163.766-58.663-290.587-50.236
				c-7.52,36.017,0.509,70.028,18.063,101.354C65.744,378.698,184.467,327.255,316.159,338.294z"/>
			<g id="t_x5F_hill" class="st43">
				<path class="st44" d="M455.472,337.731C241.78,160.502-33.477,281.492-33.477,281.492c159-22.251,274.571,14.956,349.474,56.516
					c40.386,3.508,84.019,10.608,130.113,22.819L455.472,337.731z"/>
			</g>
		</g>
		<g id="tree">
			<g>
				<path class="st45" d="M121.512,99.993c0.375,0,0.751,0,1.129,0c0.597,0.278-0.087,1.839,1.125,1.502
					C123.221,103.1,121.614,101.12,121.512,99.993z"/>
				<path class="st45" d="M227.072,110.512c0.236-0.914,1.899-0.198,1.503,0.751c-0.905-0.155-0.815,0.685-1.879,0.375
					C226.496,111.097,228.16,110.722,227.072,110.512z"/>
				<path class="st45" d="M222.94,112.014c0.187,2.065-1.963,1.795-3.756,1.878C220.03,112.862,221.825,112.779,222.94,112.014z"/>
				<path class="st45" d="M229.702,112.39c0.106,0.982-0.138,1.615-1.127,1.502C228.469,112.911,228.712,112.277,229.702,112.39z"/>
				<path class="st45" d="M95.591,115.771c-0.265,1.35-1.762,0.529-2.254,0C93.638,114.385,94.883,115.46,95.591,115.771z"/>
				<path class="st45" d="M261.631,123.285c1.35,0.023,1.758,0.996,2.253,1.878C262.748,124.921,261.717,124.575,261.631,123.285z"
					/>
				<path class="st45" d="M254.872,130.798c1.509-0.366,1.509,2.245,0,1.879C254.872,132.05,254.872,131.423,254.872,130.798z"/>
				<path class="st45" d="M260.502,131.924c-0.285,1.09-1.777,0.975-1.5,2.63c-1.424,0.205-2.348,0.909-4.13,0.752
					C257.16,134.591,258.514,132.938,260.502,131.924z"/>
				<path class="st45" d="M262.756,132.3c-0.274,1.603-1.156,2.6-3.004,2.63C260.256,133.556,261.476,132.896,262.756,132.3z"/>
				<path class="st45" d="M73.801,157.093c0.682-0.896,2.943-0.211,3.758,0c-0.159,0.843-0.807,1.198-1.127,1.879
					C75.197,158.704,75.168,157.23,73.801,157.093z"/>
				<path class="st45" d="M115.501,161.226c0.172,1.174-0.802,1.201-1.879,1.127C113.883,161.611,114.624,161.352,115.501,161.226z"
					/>
				<path class="st45" d="M59.904,168.363c-0.239,1.391-2.11,1.147-3.758,1.127C56.592,169.084,58.343,167.438,59.904,168.363z"/>
				<path class="st45" d="M56.146,171.369c1.281-0.027,1.113,1.392,1.127,2.631C56.663,173.356,56.136,172.631,56.146,171.369z"/>
				<path class="st45" d="M91.46,174.373c-0.261,0.743-1.003,1.002-1.879,1.128C89.408,174.327,90.383,174.3,91.46,174.373z"/>
				<path class="st45" d="M57.273,175.501c0.264,1.301-1.317,1.348-1.878,0.752C55.45,175.432,56.341,175.446,57.273,175.501z"/>
				<path class="st45" d="M83.195,175.501c-0.053,1.075-1.569,0.688-2.631,0.752C80.616,175.177,82.131,175.566,83.195,175.501z"/>
				<path class="st45" d="M157.575,178.131c1.511,0.258,1.419,2.745-0.376,2.629C157.016,179.575,157.877,179.435,157.575,178.131z"
					/>
				<path class="st45" d="M51.638,178.883c1.41-0.282,0.819,1.435,1.879,1.502c-0.459,1.138-1.434-0.265-1.879-0.375
					C51.638,179.633,51.638,179.258,51.638,178.883z"/>
				<path class="st45" d="M161.708,180.01c0.784-0.159,0.995,0.258,1.503,0.375c-0.401,0.852-1.141,1.366-2.256,1.504
					C161.115,181.172,162.03,181.208,161.708,180.01z"/>
				<path class="st45" d="M77.935,184.894c0.054,1.18-0.962,1.29-1.879,1.501C76.126,185.339,76.709,184.796,77.935,184.894z"/>
				<path class="st45" d="M239.093,193.533c-0.042,1.334-1.242,1.511-2.628,1.501C236.507,193.702,237.707,193.525,239.093,193.533z
					"/>
				<path class="st45" d="M248.862,195.035c-1.238,1.884-5.225,0.622-6.763,1.129C243.188,194.347,246.723,194.801,248.862,195.035z
					"/>
				<path class="st45" d="M80.189,201.422c-0.066,1.186-0.265,2.239-1.504,2.254c0.159-0.785-0.257-0.994-0.375-1.503
					c-0.661,0.091-0.857,0.647-0.751,1.503c-1.562,0.061-2.315-0.691-2.255-2.254C77.713,200.397,78.62,200.037,80.189,201.422z"/>
				<path class="st45" d="M132.781,205.554c-0.478,0.9-1.224,1.529-2.629,1.501C129.975,205.502,131.909,206.058,132.781,205.554z"
					/>
				<path class="st45" d="M90.706,208.935c0.972,0.478,2.88,1.354,1.879,2.63C90.976,211.671,90.925,210.22,90.706,208.935z"/>
				<path class="st45" d="M91.835,212.316c0.165,1.418-0.742,1.763-1.129,2.629c-2.071-0.442-2.607,0.648-4.132,0.752
					C87.569,213.812,90.347,213.709,91.835,212.316z"/>
				<path class="st45" d="M92.96,214.945c1.377,0.504,2.035,1.724,2.631,3.005C93.988,217.676,92.993,216.794,92.96,214.945z"/>
				<path class="st45" d="M220.31,216.073c0.394-0.49,4.074-1.091,3.381,0.751C222.882,217.445,221.744,215.989,220.31,216.073z"/>
				<path class="st45" d="M220.31,216.824c1.105,0.044,2.874,1.357,2.255,1.879C221.726,218.166,220.585,217.927,220.31,216.824z"/>
				<path class="st45" d="M174.855,249.882c-2.673-0.957-6.966-0.297-9.767-1.126c13.266-9.771-5.45-21.383-7.513-32.683
					c-1.036-0.591-3.24-0.016-3.757-1.128c0.882-0.369,1.846-0.658,3.005-0.751c0.058-3.09-4.26-4.954-6.762-4.507
					c-2.315,0.413-2.247,2.98-4.132,3.38c0.388-1.866,1.601-2.906,2.63-4.132c-2.054-0.578-4.933-0.339-6.011,1.128
					c-10.267-1.335-15.736,5.125-21.414,9.391c-0.506,0.38-0.911,0.562-1.502,0.751c-4.034,1.296-7.465,0.596-11.644,3.005
					c-2.042-1.591-4.929-2.335-5.636-5.26c-2.879,0.339-4.985,4.302-8.266,1.88c1.185-0.185,1.327,0.675,2.63,0.375
					c0.975-0.482-0.29-2.247,0.375-2.255c1.206-0.328,0.78,0.975,1.504,1.128c0.642-1.236,2.062-1.694,3.38-2.254
					c1.854,2.279,3.903,4.361,6.762,5.636c2.753-2.826,6.455-1.938,9.767-3.006c4.929-1.588,7.557-7.443,12.397-8.64
					c-6.062,0.434-7.975,0.695-12.772,1.878c-1.818-0.686-2.384-2.625-5.259-2.255c-0.103-1.101,1.505-1.395,0-1.878
					c-2.512,2.264-5.845-0.305-7.138,0c0.05-0.924,0.058-1.809-0.376-2.254c-2.799,1.294-6.546,1.42-9.015,1.504
					c0-1.127,0-2.255,0-3.382c-0.229-0.648-1.783,0.028-1.879-0.751c1.7-0.75,1.384-3.978,4.132-2.63
					c-0.769-3.261-4.153-2.027-7.513-3.004c-2.516,3.06-5.295,9.892-10.894,6.385c2.128,0.338,3.413-0.746,4.883,0
					c1.107-2.274,3.64-3.121,4.133-6.011c-2.041,0.464-3.125,1.885-5.258,2.255c0.264-2.031-1.018-4.477-0.376-5.636
					c0.556,0.072,0.345,0.909,0.376,1.504c1.563-0.44,1.561-2.447,3.38-2.63c-0.356,0.951-2.863,2.278-1.127,3.006
					c1.533-0.605,2.674-3.576,3.757-3.381c-0.815,2.566-3.07,3.692-5.259,4.883c1.423,1.284,2.988-0.401,4.884-0.751
					c5.284-0.976,11.989,0.21,15.026-2.631c-0.397-2.037,1.143-2.361,0.376-3.755c0.546-0.205,1.941,0.439,1.878-0.376
					c-5.363-4.41-14.153-3.142-15.777,3.757c0.086-3.169,2.571-3.94,3.005-6.763c-1.803-0.532-3.22,1.263-3.757,0.751
					c-0.063-0.642,2.131-1.477,0.376-1.502c-2.488-0.152-3.827-1.221-6.387-0.376c-1.939-2.002-5.766-3.487-9.015-3.003
					c-1.024,0.785,1.33,1.41-0.374,1.877c-2.287,0.321-2.999-1.778-2.255-3.381c-1.76-0.793-7.353-0.737-5.26-3.005
					c1.196,0.867,3.379,1.693,5.26,0.751c-0.17-2.404-3.509-3.678-5.26-2.254c0.321-1.198-0.327-1.426-0.751-1.878
					c-1.58-0.454-1.647,0.606-2.629,0.751c0.352-1.258-1.202-2.514-1.879-1.503c0.831,1.673,2.968,2.041,4.132,3.381
					c-0.342,2.469-3.647,1.156-5.259,0.751c-1.248,0.269-2.753,2.236-4.133,1.126c1.594-1.037,4.059-1.199,5.636-2.254
					c-1.274-0.73-3.677-0.331-4.508-1.503c0.867-0.386,1.211-1.294,2.629-1.127c-0.827-1.676-2.439-2.568-3.004-4.508
					c3.146,1.084,2.268-2.8,4.508-1.504c-0.005-1.653-2.597-2.197-1.504-3.756c1.214,0.415,1.294,1.962,2.631,2.254
					c0.205-0.546-0.44-1.942,0.375-1.878c1.199,0.321,1.162-0.591,1.879-0.751c0.649,0.229-0.029,1.782,0.751,1.879
					c1.031-0.723,0.654-2.852,1.879-3.381c2.662,1.094,4.743,2.113,6.763,0.752c-0.93,1.304,2.789,2.745,3.381,1.502
					c0.202-1.705-2.003-1.004-1.879-2.63c0.812-0.846,1.281,0.312,2.63,0c-0.038-1.666-0.198-3.452,1.878-3.005
					c0.331-1.208-1.239-0.516-1.127-1.504c1.787-0.719,4.728-0.282,6.011-1.502c-4.577-0.82-6.245,1.27-8.64,2.629
					c0.618-0.884,1.583-1.422,1.879-2.629c1.039-0.715,3.474-0.032,3.757-1.503c-1.217-0.831-3.76-1.096-4.884,0
					c0.031-2.054-2.558-0.749-3.381-0.374c-0.919-1.096-2.072-3.927-3.38-3.383c0.699,0.298,1.132,1.766,0,1.878
					c-0.469-1.158-2.723-0.534-3.006-1.878c2.926-0.072-0.455-3.385,2.255-4.508c-0.567-0.951-2.057-2.934-1.128-4.133
					c1.284,1.096,1.697,3.062,3.004,4.133c0.89-0.74,3.36,0.105,4.133-0.751c-0.926-0.828-2.88-0.625-3.006-2.254
					c1.791-0.538,0.933,1.571,2.63,1.127c-0.365-2.901-4.228-3.419-6.01-3.757c0.02-0.48,0.481-0.52,0.376-1.126
					c1.427,0.201,2.081,1.172,3.755,1.126c-0.275-1.364-3.374-1.868-2.629-3.007c0.516,0.017,0.824-0.176,1.126-0.375
					c1.014,0.113,0.674,1.581,1.503,1.878c0.177-2.327,0.734-4.274,2.254-5.258c1.522,0.533-0.283,2.442,1.127,2.629
					c0.793-0.335,0.652-1.602,1.879-1.503c0.275,1.074,1.139,2.037,1.878,0.752c-1.734,0.054-0.298-2.109-0.751-3.006
					c2.884,1.151,3.986-2.112,7.513-1.502c0.76-1.118,1.559-2.199,1.504-4.133c-2.074,0.071-2.997-1.011-4.133-1.878
					c2.042-1.493,3.426-3.806,3.756-6.01c0.377,0.002,0.447-0.305,0.751-0.376c1.998,0.401,2.632,3.051,4.883,1.126
					c0.315,0.436,0.496,1.007,0.376,1.879c0.893-1.651,3.129-2.533,4.883-2.254c-1.771-1.309-3.799-2.969-3.756-4.884
					c0.076-3.384,3.511-2.436,5.258-4.883c0.45,0.928,1.287,1.469,2.254,1.876c5.547-4.211,12.767-1.013,18.786-5.258
					c1.172,0.33,1.983,1.021,3.003,1.503c-0.968-2.085,0.429-4.071,3.006-3.757c-0.56-1.694-2.968-1.539-3.758-3.004
					c0.655-0.03,1.169,0.082,1.504,0.375c-0.006-2.249-2.353-2.156-2.254-4.508c1.503,0,3.005,0,4.508,0
					c-0.057-0.933,0.194-1.56,0.751-1.878c2.401,0.539,3.572,4.11,3.756,5.634c3.002-0.902-0.908-5.112,1.129-6.386
					c-1.018-0.735-2.05-1.456-2.255-3.005c2.868,1.787,3.906-0.622,6.761,1.504c0.107-2.024,1.288-2.972,2.255-4.133
					c2.016,0.486,1.647-0.653,3.381,0.376c0.065-0.562-0.133-1.387,0.376-1.503c0.56,0.943,0.935,2.07,1.879,2.631
					c0.512-1.907-0.892-3.846,0-4.885c0.847,0.53,0.308,2.446,1.878,2.254c0.064-0.562-0.134-1.386,0.376-1.502
					c1.252,0.387,1.578,3.664,3.005,2.629c-0.66-0.09-0.856-0.646-0.751-1.501c0.445-0.433,1.329-0.426,2.254-0.377
					c-0.116-0.878-0.735-1.552,0-2.254c0.125,0,0.251,0,0.376,0c0.342,0.91,1.51,0.994,2.629,1.126c0,0.752,0,1.504,0,2.254
					c2.789,0.41,1.872-2.887,4.508-2.63c0.963,0.968-0.799,2.714,0.753,3.381c1.418,0.168,0.541-1.962,1.503-2.254
					c1.281,0.22,0.926,2.078,1.878,2.629c0.769-0.607,0.947-1.807,1.501-2.629c1.623-0.245,2.107,0.649,3.006,1.126
					c-0.089,0.968-0.645-0.517-1.502,0c0.127,1.25,1.424,1.332,1.879,2.255c-0.577-1.695,1.914-2.585,4.133-2.629
					c0.744,0.709,0.182,1.773,0,2.629c1.114-0.89,1.921-2.086,3.38-2.629c2.119,3.53,8.515-1.101,9.768,3.755
					c1.65,0.149,1.296-1.71,1.878-2.629c0.852,0.401,1.365,1.139,1.503,2.254c0.852,0.274,2.931-0.677,2.63,0.751
					c1.253,0.001,1.281-1.222,2.629-1.126c0.28,1.155-1.031,0.721-0.751,1.879c1.621-0.007,1.385-1.873,3.006-1.879
					c1.101,1.182,0.527,2.386,0,3.756c0.624,0.931,2.097-1.543,1.878,1.127c1.329,0.201,1.935-0.319,2.255-1.127
					c0.736,0.517,0.202,2.301,0.751,3.005c1.062,0.31,0.973-0.529,1.879-0.376c-0.355,1.455,1.464,1.547,0.375,2.63
					c1.619,0.491,0.465-1.789,1.879-1.503c0.858,1.637-0.746,3.667,1.504,4.133c0.785,0.895-0.843,1.655-1.129,2.629
					c1.326-0.553,2.78-0.978,4.885-0.751c-0.524,1.713-1.182,2.726,0.751,3.38c-0.117,0.51-0.942,0.312-1.504,0.376
					c1.773,0.984,2.273,3.237,4.508,3.755c0.804-1.7,1.019-3.941,1.503-6.761c-1.926-0.172-1.831,1.675-3.757,1.503
					c-0.535-0.502-0.535-2.129,0-2.63c1.522,0.266,1.814,0.571,4.132-0.376c0.432,2.218,1.72,1.267,1.879,3.756
					c1.763-0.488,2.768-1.739,4.132-2.629c-1.308-0.968-1.087-2.088,0-0.375c0.963-0.039,0.603-1.4,1.127-1.879
					c1.083,0.495,0.772,2.381,0.376,3.381c-2.595,0.535-4.051,2.211-6.386,3.006c-0.521-0.231-0.057-1.447-0.751-1.504
					c-0.929,0.323,0.11,2.615-0.751,3.006c3.868,0.233,7.325-3.192,9.767-5.636c-0.008,0.884,0.646,1.106,0.375,2.254
					c0.905,0.153,0.818-0.687,1.879-0.376c-1.662,1.595-4.529,1.983-4.884,4.883c-0.556-0.32-0.808-0.945-0.751-1.878
					c-2.047,0.709-3.85,1.66-5.635,2.628c0.324,1.702-0.415,2.342-1.502,2.631c0.618,0.635,0.814,1.689,1.502,2.255
					c0.957-0.815,4.522-2.112,3.006-3.006c1.04-0.357,2.42,1.522,4.131,0c-0.333,0.354-4.935,2.783-6.011,4.883
					c4.205-1.556,7.498-4.023,12.023-5.259c-1.941,2.95-10.414,2.931-7.514,8.265c1.404,0.401,1.071-0.933,2.254-0.752
					c0.223,2.394,2.313,1.094,3.757,0.752c-0.589,2.359-2.05,4.33-0.376,6.01c1.391,0.263,0.937-1.317,1.504-1.879
					c1.488-0.11,2.296,0.46,3.005,1.128c1.138-1.902-0.345-4.404-0.751-6.011c1.962,1.833,2.465,4.316,4.131,5.635
					c1.097-0.53,1.191-2.064,1.879-3.004c-1.267-2.489-4.878-2.636-5.635-5.636c2.09-0.358,3.139,2.958,5.258,3.757
					c1.384-1.286-0.723-2.26-0.751-3.382c1.61,1.175,3.969-0.233,4.508,1.504c1.17-0.716-0.587-1.631-0.376-2.63
					c2.126,0.375,2.381-1.125,4.508-0.75c0.558,0.44,1.061,0.943,1.503,1.501c1.627,0.124,0.924-2.081,2.629-1.878
					c0.062,0.44,0.685,0.316,1.128,0.376c0.412,1.089,0.339,2.665,0.75,3.755c1.14,0.012,0.364-1.889,1.504-1.879
					c0.801-0.175,0.716,0.537,0.75,1.129c1.408,0.282,0.82-1.435,1.878-1.504c2.278,0.1,1.287,3.473,4.132,3.005
					c-1.019,3.568-4.757,3.936-7.511,4.883c3.222,1.091,6.845-0.661,8.636-2.253c0,0.625,0,1.252,0,1.878
					c1.182,0.181,0.849-1.154,2.251-0.752c-2.456,3.304-10.828,0.688-12.768,4.508c0.106,1.525,1.195,2.061,0.751,4.133
					c0.039,1.162,1.465-1.161,1.504,0c0.135,1.264-1.629,0.626-2.256,1.127c1.302,1.836,2.01,3.923-0.75,4.508
					c1.497,0.735,3.032-1.717,3.757-3.004c3.202-0.199,6.03-0.022,6.76,2.252c0.646-0.48,0.464-1.788,1.501-1.877
					c0.958-0.017,0.456,0.278,0.375,0.751c1.325-0.175,1.319-1.685,3.004-1.504c-0.991,3.518-4.701,4.313-8.637,4.884
					c-0.181,1.309,1.833,0.422,1.878,1.503c1.372-0.004,2.013-0.743,2.629-1.503c2.237,2.217-2.049,2.389-3.379,3.756
					c-0.697,0.716,0.034,1.986-1.128,1.879c-0.05,1.303,1.901,0.602,1.878,1.879c0.754-0.625,1.747-1.009,1.879-2.255
					c1.147,0.933-0.451,2.279,0,3.757c0.492,0.468,1.943-1.291,2.629-1.879c0.148-0.9-1.714,0.208-1.128-1.127
					c1.5-0.372,1.129,1.123,2.628,0.751c0.084,1.209-0.664,1.59-0.377,3.006c-0.905,0.971-2.702,1.051-3.379,2.253
					c0.054,0.839,0.948-0.488,1.879,0c-0.663,1.27,0.748,3.506-1.503,3.757c0.162,0.839,1.85,0.152,2.629,0.376
					c-0.621,2.162-1.506,2.23-1.878,4.131c0.092,0.409,0.745,0.256,0.751,0.752c1.948,0.073,1.19-2.566,1.876-3.757
					c1.349,1.03,1.341,2.446,3.38,1.127c0.1,1.275-0.292,3.045,0.375,3.757c1.531,0.279,1.294-1.211,3.003-0.751
					c0.182,2.105,1.825,2.836,0,4.132c-0.965-0.09,0.518-0.646,0-1.504c-3.959-0.614-5.881,2.348-7.886,0.751
					c-1.022,2.614,3.788,0.076,4.508,2.254c0.748-0.377,0.593-1.661,1.876-1.502c0.047,0.674-0.461,0.792-0.373,1.502
					c2.813,0.355,3.009-3.642,5.258-2.629c-0.552,1.452-2.208,1.801-3.384,2.629c1.097,1.172,3.488-1.043,4.51,0
					c0,0.127,0,0.25,0,0.377c-0.88,0.119-1.411,0.593-2.629,0.374c-1.542,1.841-3.101,3.663-6.011,4.133
					c0.712,1.041,2.881,0.626,3.004,2.255c-0.072,1.18-0.697,1.806-1.876,1.878c0.826,0.675,2.674,0.328,3.757,0.751
					c0.039,1.42-0.734,2.02-1.881,2.253c-0.96,0.016-0.457-0.278-0.375-0.751c-4.3,3.083-10.734,4.037-17.271,4.884
					c0.09,2.172,3.654,0.869,4.129,0c1.084,3.284-4.656,0.942-6.01,2.629c-2.239-0.138-4.288-0.468-6.01-1.128
					c0.233-0.802,2.312-0.351,2.631,0c-0.065-1.185-1.484-1.019-2.631-1.127c-2.978,1.655-6,3.266-7.137,6.763
					c-3.835,0.673-6.406,2.611-10.143,3.381c1.018,2.18,3.843,1.824,6.011,1.127c0.328,1.206-0.974,0.779-1.126,1.504
					c0.859,0.893,2.285,1.22,4.131,1.126c1.191-0.813,1.162-2.845,3.756-2.254c0.219,1.471-1.545,0.96-1.878,1.878
					c4.22,1.085,7.811-1.7,10.894-3.004c0.509,0.116,0.311,0.94,0.375,1.502c1.965-1.436,5.535-1.168,8.637-2.255
					c-2.223,2.207-4.306,0.531-5.63,3.381c2.315-0.396,6.34-0.198,9.011-1.126c0.988,1.177-1.049,1.734-1.5,2.629
					c0.484,0.938,2.105-0.11,2.251-0.751c1.019,0.682-0.209,2.267-0.375,3.005c-6.94,2.445-14.969-2.444-21.033,0.377
					c0.377,0.5,0.618,1.133,1.128,1.504c-2.311-0.449-7.805-0.961-10.145-2.631c-1.406-0.029-1.134,1.619-3.004,1.127
					c0.867,0.635,1.175,1.829,2.628,1.878c-0.325,1.676-1.845,2.161-3.379,2.628c0.037-0.964,1.466-0.536,1.503-1.501
					c0.201-1.753-3.326-1.19-1.879-3.005c-0.853-0.274-2.931,0.678-2.629-0.751c-0.518,1.158,1.579,2.919,2.629,3.756
					c-1.651,0.477-6.628-0.399-4.883-3.381c-0.515-1.237-1.987-1.518-3.382-1.878c0.32-1.101,1.21,0.223,1.88,0
					c-3.538-1.539-10.009,1.086-11.645,4.883c-1.459-1.108-2.534-0.237-4.509,0c4.154,1.004-1.915,0.733-3.381,1.504
					c0.463,0.537,1.292,0.711,2.254,0.751c0.338,3.948,5.83,0.211,7.89,1.502c-0.646,0.981-2.858,0.399-3.381,1.502
					c1.53,0.36,1.819,0.698,3.381,0.377c0.78-0.097,0.104-1.652,0.751-1.879c0.662,0.093,0.857,0.646,0.752,1.502
					c2.463-0.165,4.083-1.174,7.137-0.75c-0.989,1.389-4.29,0.468-5.259,1.878c0.669,0.462,1.642,0.244,3.38,0.375
					c-0.669,2.212-6.023-0.261-6.011,2.631c-0.935-0.212-2.35-1.879-3.38-0.751c-0.67-0.276-0.054-0.685,0-1.128
					c-1.579-0.076-2.391,0.615-2.631,1.879c-1.503,0-3.005,0-4.508,0c1.042,2.813,7.969,2.124,10.518,1.127
					c-0.008,1.107,1.489,1.522,2.254,0.752c0.309-1.437-1.811-0.444-1.502-1.879c1.886-0.009,2.515,1.241,4.883,0.751
					c-0.185,1.442-2.396,0.86-2.253,2.628c-1.038,0.339-3.526-0.771-3.381,0.753c-1.197-1.833-3.846-0.084-5.636-1.504
					c-0.646,0.117,0.488,1.304-1.126,1.128c-0.754-0.767,0.166-0.737,0.375-1.504c-4.228,0.436-5.936-3.525-10.517-1.502
					c-0.133,2.011,1.044,2.713,1.502,4.132c2.27-0.485,3.71-1.801,6.762-1.504c-4.214,2.922-11.913,2.363-18.407,3.007
					c-0.476,5.608-2.197,10.541-1.503,15.778c0.668,5.037,5.271,8.288,5.26,13.147C185.374,249.882,180.114,249.882,174.855,249.882
					z M139.918,92.48c0.751,0.376,0.593,1.661,1.879,1.502c0.154-0.905-0.686-0.816-0.375-1.878
					c0.459-0.043,0.891-0.113,0.751-0.751C141.338,91.645,140.137,91.572,139.918,92.48z M143.3,94.36
					c1.101-0.028,2.117-0.136,1.879-1.504c-0.345-0.657-1.175-0.829-2.254-0.751C142.875,93.031,142.867,93.914,143.3,94.36z
					 M148.182,94.735c-0.128-0.997-0.985-1.268-1.878-1.503C146.251,94.413,147.268,94.522,148.182,94.735z M137.666,96.237
					c-0.694-0.81-0.348-2.659-2.256-2.255C134.951,95.715,136.885,96.992,137.666,96.237z M148.559,96.988
					c0.089,1.163,1.045,1.46,1.502,2.254c0.683-1.049,0.033-3.364-0.375-4.508C149.519,95.694,149.158,96.461,148.559,96.988z
					 M135.41,101.496c1.284-1.43,2.371-0.772,3.757-1.879c-0.988-0.513-1.423-1.581-2.629-1.877
					C137.342,100.095,134.468,100.187,135.41,101.496z M126.77,100.745c-0.171,1.173,0.804,1.201,1.879,1.126
					C128.782,100.253,127.715,100.421,126.77,100.745z M245.855,124.035c-0.376-1.13,0.837-0.665,1.504-0.751
					c0.563-2.278-0.353-3.765-1.881-4.884C245.379,120.208,243.63,123.225,245.855,124.035z M248.485,122.909
					c0.695,0.556,0.563,1.941,1.878,1.879c0.084-0.293,0.314-0.437,0.751-0.375c-0.045-1.083,0.205-2.46-0.376-3.006
					C249.771,120.548,248.613,121.78,248.485,122.909z M156.072,124.413c-0.625-1.181,1.398-1.537,0.376-1.879
					C155.815,123.051,153.927,124.246,156.072,124.413z M251.864,125.539c0.803-0.955,2.55-0.958,2.632-2.63
					c-0.51-0.118-0.717-0.534-1.504-0.375C253.108,123.797,250.953,124.721,251.864,125.539z M218.056,125.539
					c1.21-0.92,3.392-0.867,4.133-2.254C221.099,122.835,218.105,123.697,218.056,125.539z M241.347,124.413
					c1.172,1.603-0.084,1.843,0.376,3.379c2.178-0.297,0.316-4.371,1.128-4.883C242.512,123.571,242.011,124.072,241.347,124.413z
					 M187.628,125.539c0.376,0,0.751,0,1.127,0c0.105-0.856-0.092-1.413-0.751-1.504
					C187.885,124.543,187.47,124.753,187.628,125.539z M151.565,126.665c-0.068-1.185-0.264-2.241-1.504-2.253
					C150.2,125.527,150.712,126.264,151.565,126.665z M243.604,128.919c1.889-0.113,1.192-2.813,1.875-4.132
					C243.867,125.054,243.038,127.681,243.604,128.919z M239.093,130.422c1.861,0.223,0.858,0.973,1.504,2.255
					c1.237-0.391,2.09-1.164,2.631-2.255c-2.645,0.139-1.674-3.336-3.758-3.756C237.989,127.943,239.861,128.673,239.093,130.422z
					 M199.65,130.046c2.403,0.638,4.051-1.443,3.005-3.006C203.064,130.162,199.539,127.12,199.65,130.046z M203.782,128.919
					c0.376,0,0.751,0,1.126,0c-0.086-0.667,0.378-1.88-0.751-1.503C204.039,127.925,203.622,128.135,203.782,128.919z
					 M248.862,129.295c1.327,0.202,1.935-0.319,2.253-1.127C249.971,128.149,249.201,128.509,248.862,129.295z M154.944,130.798
					c0.377,0,0.752,0,1.128,0c-0.085-0.667,0.379-1.882-0.751-1.503C155.203,129.803,154.785,130.012,154.944,130.798z
					 M159.829,131.924c0.915-0.212,1.933-0.321,1.879-1.503c-0.32-0.807-0.927-1.329-2.255-1.126
					C159.152,130.599,160.012,130.739,159.829,131.924z M204.158,132.677c0.292,0.082,0.435,0.315,0.375,0.751
					c3.394,0.39,5.394-0.617,6.011-3.006C207.198,130.676,206.537,129.887,204.158,132.677z M249.99,132.3c0.373,0,0.748,0,1.125,0
					c0.199-0.959,0.498-1.314-0.376-1.879C251.284,131.842,249.707,131.143,249.99,132.3z M173.353,132.677
					c1.342,0.035,1.356,1.399,2.632,1.502c0.346-1.476-1.308-0.947-0.753-2.63C174.354,131.675,173.613,131.934,173.353,132.677z
					 M198.147,134.179c1.426-0.451,2.608-1.149,3.381-2.254C199.534,131.571,197.038,132.678,198.147,134.179z M246.23,134.179
					c1.215-0.288,1.968-1.04,2.256-2.254C247.27,132.213,246.521,132.964,246.23,134.179z M237.591,132.677
					c-0.386,1.262,1.168,0.584,1.879,0.751C239.523,131.917,238.506,132.434,237.591,132.677z M249.99,135.681
					c1.29-0.086,1.635-1.118,1.875-2.254C250.575,133.514,250.231,134.545,249.99,135.681z M134.285,133.802
					C133.7,138.857,138.517,134.039,134.285,133.802L134.285,133.802z M138.417,139.813c-1.179-0.176-1.06,0.944-1.503,1.503
					c1.877-0.509,4.351-2.401,3.38-4.508c-0.182,0.445-0.4,0.852-0.751,1.128c-0.16-0.717-0.809-0.944-0.751-1.878
					c-0.87,0.119-1.441-0.061-1.877-0.376c-0.33,2.459,1.437,2.82,1.877,4.508C138.564,140.169,138.346,140.133,138.417,139.813z
					 M205.66,139.061c0.863-1.014,2.587-1.168,3.006-2.628C210.042,135.342,204.713,138.191,205.66,139.061z M244.728,137.56
					c0.946-0.434,2.578-0.178,2.631-1.502C245.9,135.976,245.002,136.455,244.728,137.56z M156.448,138.686
					c0.099-1.224-0.446-1.808-1.504-1.879C154.847,138.033,155.391,138.617,156.448,138.686z M248.485,139.813
					c0.72-1.157,2.208-1.549,2.629-3.006C248.957,136.291,248.367,139.303,248.485,139.813z M136.163,140.189
					c-0.159-1.718-0.819-2.938-2.63-3.004C133.618,138.976,135.869,138.605,136.163,140.189z M166.59,143.57
					c-1.221-2.284-1.982-5.028-4.131-6.385C163.089,140.061,164.785,141.87,166.59,143.57z M145.553,139.061
					c-0.306,1.835,1.079,1.706,1.504,1.88c0.304,1.805-1.648,1.356-1.127,3.381c1.484-0.601,2.857-5.047,1.127-6.386
					C146.846,139.179,146.734,139.572,145.553,139.061z M256,140.189c1.834,0.159,2.545-1.567,3.752,0
					c-0.274-1.025,0.747-0.755,0.75-1.503C258.358,138.542,256.532,138.721,256,140.189z M205.66,143.947
					c1.316-1.315,3.372-1.888,3.381-4.51C207.317,140.1,206.075,143.226,205.66,143.947z M154.569,143.195
					c1.312-0.066,1.892-0.865,2.254-1.879c-0.601-0.65-1.137-1.367-2.63-1.127C154.238,141.271,153.989,142.649,154.569,143.195z
					 M79.813,141.316c-0.113,0.989,0.52,1.234,1.503,1.126C81.291,141.432,80.457,140.638,79.813,141.316z M220.31,143.947
					c1.933,0.368,2.134-2.591,1.129-3.006C221.417,142.297,220.501,142.759,220.31,143.947z M142.925,141.692
					c-0.447,1.117,1.584,1.613,1.879,0.751c-0.78-0.21-0.796-0.585-0.376-1.126C143.716,141.231,143.598,141.739,142.925,141.692z
					 M158.703,145.448c1.597,0.204,1.636-3.1,3.381-1.501c-0.16,0.715-1.074,0.68-0.751,1.878c1.538-0.645,0.999-2.732,3.006-1.127
					c-0.429-2.328-2.481-3.029-4.885-3.381C160.701,143.241,159.396,143.722,158.703,145.448z M139.167,145.448
					c0.953-0.425,0.945-1.811,2.63-1.501C140.806,139.382,134.472,143.684,139.167,145.448z M254.497,145.072
					c0.308-2.307,1.763-1.643,2.251-2.254c-2.242-1.676-6.962,0.502-9.014,1.504C250.502,144.834,254.648,143.052,254.497,145.072z
					 M112.871,143.57c-0.716-0.159-0.68-1.073-1.879-0.751C110.546,143.935,112.576,144.433,112.871,143.57z M140.294,147.327
					c1.08-2.103,0.583,4.919,3.006,2.631c-1.912-0.376,1.836-0.676,2.253-1.128c0.03-2.66-0.558-4.7-2.628-5.26
					C142.46,144.995,139.528,145.921,140.294,147.327z M245.105,144.697c-0.093,1.362,3.636,0.846,4.13,0.375
					C247.826,144.771,246.581,143.889,245.105,144.697z M82.443,146.575c0.709,0.084,0.828-0.423,1.503-0.376
					c0.068-0.82-0.308-1.195-1.127-1.127C82.7,145.58,82.284,145.791,82.443,146.575z M218.808,146.951
					c1.665,0.037,2.81-0.445,3.006-1.879C220.653,145.541,218.866,145.381,218.808,146.951z M254.12,145.825
					c-0.272,1.148,0.649,1.105,0.377,2.254c1.85-0.402,3.564-0.941,3.754-3.006C256.616,145.066,256.158,146.235,254.12,145.825z
					 M159.453,149.581c0.502,0,1.001,0,1.502,0c0.31-1.448,0.688-3.523-1.126-3.756C159.973,147.32,158.323,148.264,159.453,149.581
					z M86.949,149.206c0.51,0.117,0.72,0.535,1.504,0.375c0.145-2.158-2.244-3.755-3.756-3.006
					C85.436,147.442,88.754,148.103,86.949,149.206z M151.94,149.957c-0.117-1.136,0.418-2.922-0.751-3.006
					C150.649,148.094,150.804,149.513,151.94,149.957z M221.062,148.454c0.893-0.235,1.749-0.505,1.879-1.503
					C222.025,147.163,221.008,147.273,221.062,148.454z M145.929,149.206c0.707,0.44,2.455,1.774,3.381,0.751
					C148.722,148.704,146.505,146.239,145.929,149.206z M223.691,148.454c1.401-0.529,3.416,1.502,3.757-0.375
					C226.774,147.307,223.963,147.576,223.691,148.454z M187.253,149.957c0.165-1.909,0.792-0.44,1.878-0.376
					c0.005-0.748,1.026-0.478,0.752-1.502C188.008,147.377,186.176,150.149,187.253,149.957z M107.235,151.084
					c-0.015-0.517,0.179-0.825,0.377-1.126c-0.675-1.204-3.457-0.3-4.132-1.504C103.816,150.247,104.988,151.202,107.235,151.084z
					 M134.285,153.337c-0.248-2.384-2.625-2.635-3.382-4.508C131.167,151.195,132.042,152.951,134.285,153.337z M78.686,150.332
					c1.295-0.349,2.801,0.115,4.884,0.751c-0.212-1.917-2.481-1.775-4.508-1.878C79.078,149.722,78.885,150.029,78.686,150.332z
					 M163.586,150.332c0.113-0.99-0.52-1.233-1.503-1.126C161.705,150.46,162.605,150.437,163.586,150.332z M169.22,151.459
					c0-0.627,0-1.252,0-1.879c-0.5,0-1.001,0-1.503,0C167.561,150.865,167.83,151.722,169.22,151.459z M218.056,151.836
					c1.503-0.252,1.511,0.993,1.503,2.252c0.751,0,1.503,0,2.255,0c0.982-1.271,0.555-3.953,2.254-4.507
					C221.607,149.876,218.978,150.002,218.056,151.836z M157.2,151.459c0.553-0.52,0.195-1.787-1.128-1.502
					C155.967,150.938,156.21,151.572,157.2,151.459z M224.067,150.708c0.28,1.852,0.28,2.28,0,4.131
					c1.932-0.947,3.045-2.713,4.508-4.131c-0.079-0.422-0.416-0.585-0.751-0.751C227.889,152.722,224.524,149.76,224.067,150.708z
					 M115.877,152.21c0.033-1.304-1.89-2.593-3.006-1.502C114.198,150.884,114.927,151.657,115.877,152.21z M89.956,153.713
					c-0.409-1.479-2.979-2.768-4.508-1.877C86.728,152.682,87.969,153.571,89.956,153.713z M142.925,152.21
					c-0.01,1.263,0.517,1.987,1.127,2.629c0.223-0.778-0.466-2.467,0.375-2.629c0.447,0.725,2.551,3.225,0.751,3.757
					c1.191,3.444,5.937,3.331,7.513,6.386c-0.097,1.154-0.815,1.69-1.126,2.63c1.413-0.286,0.258,1.995,1.878,1.502
					c-0.147-3.099-0.965-7.786-1.878-12.772c-0.905-0.75-1.819,0.656-2.63-0.376c-0.112-0.739,0.507-0.744,0.751-1.127
					C148.386,151.11,144.224,151.11,142.925,152.21z M94.088,158.221c-2.886-3.752-7.94-5.333-13.524-6.385
					C83.791,155.245,89.153,156.519,94.088,158.221z M106.86,153.337c1.599,0.222,2.484-0.27,3.757-0.375
					c0.705,0.545,0.046,2.458,0.752,3.005c3.933-0.02,8.265,3.037,11.271,1.503C116.458,157.604,112.843,148.561,106.86,153.337z
					 M211.67,153.713c0.971,0.184,2.13-1.328,1.128-1.877C212.378,152.418,211.576,152.617,211.67,153.713z M76.056,154.088
					c2.67-0.47,6.249,1.493,7.513,0C81.646,153.46,77.298,152.058,76.056,154.088z M163.962,155.967
					c0.729-2.122-1.653-3.084-2.629-2.254C162.08,154.594,162.127,156.173,163.962,155.967z M108.364,154.464
					c0.716,0.162,0.944,0.808,1.879,0.751C110.676,153.728,108.495,153.22,108.364,154.464z M123.014,156.718
					c-0.486-2.143-2.744-2.513-5.258-2.631C118.493,155.98,121.415,155.689,123.014,156.718z M159.829,161.603
					c0.085-0.292,0.012-0.741,0.375-0.752c-1.857-2.398-4.181-4.333-6.01-6.763C154.534,158.13,155.234,161.814,159.829,161.603z
					 M171.098,157.47c0.835,0.292,1.465,0.79,2.629,0.751c0.161-1.539-0.347-2.407-0.751-3.382
					C171.308,154.674,170.933,155.801,171.098,157.47z M224.067,158.221c1.484,0.417,2.884-2.612,1.127-3.006
					C224.874,156.273,223.98,156.757,224.067,158.221z M245.105,158.221c0.548-0.83,2.008-0.744,2.254-1.879
					c-1.651-0.396-1.234,1.27-2.631,1.127c-0.289-0.96,1.47-1.726,0.376-2.254C244.424,155.636,243.734,157.965,245.105,158.221z
					 M246.23,158.972c0.879,0,1.753,0,2.632,0c-0.078-2.455,2.656-2.104,3.381-3.756C248.792,155.02,248.402,157.888,246.23,158.972
					z M107.612,157.47c-1.55,0.047-2.351-0.653-4.132-0.376c-0.707,0.672-1.738,1.017-2.254,1.879
					c1.304,0.663,3.577-0.228,5.26,0.751c-0.87,1.003-2.882-0.257-3.381,0.376c0,2.505,0,5.009,0,7.513
					c3.669,0.039,7.269,0.005,9.39-1.502c-0.021,0.481-0.482,0.52-0.375,1.127c2.979-0.006,2.909-2.482,4.884-2.629
					c-0.921-1.953-0.222-2.458,0.375-4.509c-0.653-0.464-2.495,0.288-4.133,0c0.204,4.225-5.367,0.888-4.883-0.376
					c2.669,0.042,5.037-0.221,6.387-1.502c-2.799,0.293-4.482-0.529-7.139-0.376c0.938-1.213-1.392-1.667-2.254-2.253
					C105.165,157.162,107.082,156.623,107.612,157.47z M240.221,156.343c0.936,0.749,2.991,0.211,3.383-0.75
					C242.237,155.605,240.636,155.381,240.221,156.343z M221.439,158.221c0.737-0.639,1.601-1.153,1.878-2.254
					C221.902,155.859,219.944,157.737,221.439,158.221z M215.802,158.221c0.339-1.018,0.84,0.859,1.503,0.751
					c-0.101-1.557,0.492-1.463,0-2.629C216.397,156.34,214.904,157.659,215.802,158.221z M95.967,159.348c1.002,0,2.002,0,3.004,0
					c-0.005-1.998-1.697-2.308-3.38-2.63C95.373,157.937,95.846,158.466,95.967,159.348z M142.172,157.47
					c-0.015,1.337,1.409,1.953,1.879,0.751c0.24,1.512,0.789,2.718,2.63,2.629C146.234,158.838,143.713,157.165,142.172,157.47z
					 M162.459,157.846c0.343,1.535,1.15,2.604,2.63,3.005C165.419,158.554,164.461,156.702,162.459,157.846z M208.288,159.723
					c1.172,0.022,3.415-0.813,2.256-1.878C209.941,158.621,208.326,158.383,208.288,159.723z M211.67,159.348
					c0.886,0.009,1.107-0.648,2.254-0.376c0-0.376,0-0.751,0-1.126C212.51,157.683,212.214,158.638,211.67,159.348z
					 M169.972,160.475c0.233-1.019,1.569-0.935,1.503-2.254C170.46,158.235,168.95,159.672,169.972,160.475z M238.718,159.348
					c0.983,0.106,1.616-0.138,1.503-1.127C239.238,158.116,238.605,158.357,238.718,159.348z M235.712,160.099
					c-0.793,0.829-1.109-0.483-2.252-0.376c0.82,1.735,1.094,1.367,0.375,3.382c0.832,0.786,2.502,0.293,3.006-0.376
					c0.31-1.062-0.53-0.974-0.376-1.879c0.781,0.213,1.213,1.073,1.878,0.376c-0.514-1.127-2.586-2.656-3.381-2.254
					C235.435,159.126,235.729,159.457,235.712,160.099z M138.041,160.85c-1.22,0.121-2.001-1.01-1.127-1.879
					C134.129,159.026,137.305,163.229,138.041,160.85z M86.575,160.099c1.175-0.411,1.201-0.384,1.127,1.127
					c0.626,0,1.252,0,1.879,0C89.693,159.809,87.219,158.446,86.575,160.099z M228.575,163.856c2.425,0.546,2.367-1.388,4.131-1.503
					c0.028-1.654-0.898-2.358-1.876-3.005C232.138,161.774,228.087,161.105,228.575,163.856z M138.791,162.729
					c0.881,0.999,1.591,2.166,3.006,2.63c0.598-2.35-1.831-1.676-2.254-3.006c1.084,0.029,1.084-2.659,0-2.63
					C139.725,161.158,139.436,162.121,138.791,162.729z M208.288,163.48c0.182-1.892,1.428,0.194,2.256,0
					c-0.179-2.182,2.387-1.618,2.254-3.757C210.813,160.249,208.103,162.034,208.288,163.48z M94.464,164.608
					c0.883,0.117,0.223,1.78,1.503,1.502c0.063-0.562-0.134-1.387,0.376-1.502c0.705,2.299,3.85,2.16,5.258,3.755
					c0.182-1.182-1.152-0.85-0.751-2.253c0.537,0.146,0.636,0.451,1.128,0c0.289-2.918-1.486-3.775-1.878-6.011
					C97.006,160.387,95.978,162.741,94.464,164.608z M258.251,161.226c1.125,0,2.251,0,3.381,0
					C261.669,159.579,258.322,159.841,258.251,161.226z M201.527,163.48c1.282-0.22,2.174-0.831,2.631-1.878
					c-0.885,0.009-1.107-0.648-2.254-0.376C202.176,162.375,201.254,162.331,201.527,163.48z M223.691,163.48
					c1.245-0.132,1.63-1.126,2.254-1.878C224.809,161.843,223.777,162.189,223.691,163.48z M257.499,163.105
					c0.593-1.47-0.972-0.778-1.126-1.503c-6.228-0.342-7.825,3.942-11.644,6.01c2.321-0.562,5.151-0.609,7.514-1.127
					c0.625-1.18-1.397-1.534-0.378-1.877c1.02,0.107,1.772,0.482,2.256,1.125c2.066-0.592,1.248-2.795,2.253-3.757
					C256.776,162.328,256.49,163.363,257.499,163.105z M88.077,162.353c-0.049,0.927-0.058,1.81,0.376,2.255
					c0.501,0,1.001,0,1.503,0c-0.391-1.066-0.391-1.566,0-2.632C89.085,161.857,88.514,162.038,88.077,162.353z M114.751,168.739
					c0.002-0.379,0.656-0.472,0.75,0c-2.313,1.47-4.335-2.212-6.386,0c0.079,2.426,1.914,3.096,1.879,5.634
					c7.263,0.001,7.895-6.628,14.275-7.513c-1.175-1.663,0.948-4.43-1.127-4.884C120.095,163.067,115.379,165.486,114.751,168.739z
					 M184.623,169.116c3.3,0.545,1.65-3.861,4.132-4.133c-0.283-1.219-0.623-2.382-2.254-2.254c-0.103,0.66,1.058,1.875,0,2.254
					c-1.272-0.23-0.602-2.402-2.254-2.254C184.343,164.887,183.966,167.519,184.623,169.116z M86.199,166.861
					c-0.198-1.679-0.619-3.135-1.879-3.755C83.961,165.055,84.027,166.624,86.199,166.861z M266.511,165.359
					c1.595,0.344,1.602-0.9,1.5-2.254C266.732,163.081,265.502,164.239,266.511,165.359z M173.353,164.608
					c2.127,0.627,2.106,3.403,2.632,5.635c1.045-1.497,0.884-4.778,0.375-6.763C174.88,163.378,173.749,163.625,173.353,164.608z
					 M90.706,165.734c1.057-0.069,1.601-0.653,1.503-1.878C91.153,163.927,90.61,164.509,90.706,165.734z M236.465,166.11
					c1.565-0.565,3.191-1.066,4.132-2.254C237.95,163.34,237.204,164.722,236.465,166.11z M241.723,166.861
					c1.559-0.645,6.251-1.912,4.883-3.005C244.861,164.57,239.77,163.672,241.723,166.861z M260.881,165.359
					c1.825-0.117,1.738-1.031,3.002,0C265.303,163.129,260.925,163.78,260.881,165.359z M148.182,165.359
					c-0.368-0.418-1.612-1.845-2.253-0.751C146.636,164.688,147.881,166.113,148.182,165.359z M157.2,166.485
					c2.087,0.086,3.914-0.093,4.508-1.502C160.234,164.184,157.251,164.658,157.2,166.485z M209.041,164.608
					c-0.877,0-1.753,0-2.63,0C206.265,166.505,208.854,165.588,209.041,164.608z M89.205,166.485
					c-0.75-0.377-0.593-1.662-1.879-1.502C86.104,165.913,88.355,167.709,89.205,166.485z M196.644,167.237
					c1.176-0.094,3.473-1.01,2.254-2.254C198.151,165.739,197.121,166.211,196.644,167.237z M231.581,167.612
					c0.096-0.78,1.649-0.102,1.879-0.751c0-0.625,0-1.251,0-1.878C231.424,164.579,230.222,166.817,231.581,167.612z
					 M222.94,169.867c1.6,0.329,3.332-1.152,4.508,0c-2.191,1.69-7.39,0.373-7.513,4.133c3.119-0.263,5.972-0.79,7.888-2.255
					c0.095-2.461,0.802-1.659,0-3.757c1.23-0.273,1.656-1.349,2.255-2.254C226.534,164.504,224.253,167.631,222.94,169.867z
					 M171.098,166.485c1.407,0.345,1.975,1.532,3.381,1.878C174.694,166.576,171.97,164.817,171.098,166.485z M143.3,166.485
					c-0.079,1.118,1.34,1.325,1.879,0.752C145.441,165.936,143.86,165.89,143.3,166.485z M212.798,169.867
					c1.587-0.29,2.811-1.662,4.508-0.751c0.323-1.182,1.42-1.586,1.503-3.006C217.093,167.651,213.279,167.094,212.798,169.867z
					 M151.565,168.739c-0.756-0.746-1.229-1.777-2.254-2.254C149.481,167.585,151.087,169.192,151.565,168.739z M83.57,166.861
					c-0.877,0-1.753,0-2.63,0C80.501,168.469,84.009,168.469,83.57,166.861z M120.008,172.871c-2.455-0.07-5.779,2.232-8.264,3.382
					c2.721,1.543,4.185,4.583,6.011,6.01c2.238,0.527,2.547-1.291,4.131-0.375c0.198-1.826-1.597-1.658-1.503-3.381
					c-1.299,0.621-3.746,1.283-4.883,0c2.748,0.494,2.029-2.478,3.757-3.006c0.001,0.671-1.011,2.186,0,2.63
					c0.154-0.472,0.484-0.768,1.126-0.751c0.695,0.934,1.136,2.118,2.257,2.629c-0.059-0.933,0.193-1.56,0.75-1.879
					c-0.219,1.22,0.256,1.747,0.375,2.629c2.621-0.509,4.822-1.438,6.011-3.38c2.029-0.528,1.991,1.013,3.38,1.126
					c0.033-1.973,0.759-0.154,1.879-0.751c0.538-3.543-4.266-1.742-4.884-4.133c1.714-0.212,2.34,0.666,4.133,0.377
					c-0.012-3.622-2.597-4.668-3.757-7.139C125.435,167.279,122.297,169.648,120.008,172.871z M201.904,169.116
					c1.405-0.224,2.668-0.588,2.629-2.255C203.188,167.145,202.146,167.731,201.904,169.116z M210.167,169.867
					c1.462-0.166,1.539-1.718,2.255-2.63C211.26,167.626,209.403,168.734,210.167,169.867z M156.448,168.739
					c0.947,1.271,1.968,0.235,3.756,0.377c-0.082-0.71,0.424-0.83,0.377-1.504C159.404,168.189,156.911,167.447,156.448,168.739z
					 M173.728,172.121c0-1.002,0-2.004,0-3.005c-1.118-0.761-2.197-1.559-4.132-1.504
					C170.064,169.45,171.255,171.346,173.728,172.121z M197.771,169.49c1.57,0.786,2.778-0.605,3.38-1.878
					C199.466,167.68,198.966,168.931,197.771,169.49z M77.184,168.363c-0.052,1.931,0.055,3.703,0.751,4.884
					c2.517-0.474,4.914-2.019,7.137-3.757c1.503,0.878,3.509,1.251,5.635,1.504c0-0.877,0-1.753,0-2.631
					C87.453,168.528,81.373,168.564,77.184,168.363z M92.585,170.618c0.626,0,1.252,0,1.879,0c0.121-0.882,0.592-1.41,0.375-2.63
					C92.594,167.533,91.857,169.168,92.585,170.618z M106.86,169.116c1.077,0.073,2.051,0.047,1.879-1.128
					C107.558,167.81,107.202,168.456,106.86,169.116z M237.967,169.116c0.165,1.085,0.792,1.712,1.88,1.878
					c0.954-0.672,0.961-2.293,1.876-3.006C239.946,167.839,240.01,169.53,237.967,169.116z M162.083,168.739
					c-0.321,2.033,0.742,3.097,2.255,2.254C164.358,169.525,162.965,168.131,162.083,168.739z M194.765,169.116
					c0.437,0.314,1.007,0.494,1.879,0.374C197.005,168.11,194.8,167.998,194.765,169.116z M97.469,170.618
					c0.097-1.225-0.445-1.808-1.502-1.879C95.495,169.811,95.673,170.89,97.469,170.618z M106.86,174
					c0.412-1.091,2.764-0.243,2.254-2.255c-1.098,0.25-1.846,1.331-2.629,0c0.59-0.037,1.302,0.05,1.126-0.751
					c-1.67-0.709-4.314-0.444-5.635-1.504C102.004,172.594,105.654,172.074,106.86,174z M141.422,176.628
					c4.93-0.707,1.55-7.108-1.879-7.138C139.041,172.997,140.694,174.351,141.422,176.628z M157.2,177.003
					c-0.002-0.009-1.073,1.329-1.128,1.879c-0.142,1.456,0.703,2.52,1.128,4.132c1.14-0.541,1.476,0.378,2.629,0.753
					c0.164,1.291-0.148,2.104-0.376,3.003c2.741-0.61,1.854,2.404,4.133,2.254c4.154-2.232,3.378-9.394,5.634-13.524
					c-1.499-5.015-6.896-1.67-9.016-5.634c-0.887,0.489-0.369,2.385-1.878,2.254c0.91-1.479-1.437-2.43-3.005-2.631
					C154.145,173.242,157.001,174.909,157.2,177.003z M215.427,170.618c-1.415,0.29-1.795-0.459-3.005-0.375
					c0.151,1.847,4.358,1.469,4.133-0.376C215.648,168.951,213.893,170.02,215.427,170.618z M242.099,172.121c0.251,0,0.5,0,0.751,0
					c0.292-0.083,0.739-0.011,0.753-0.376c-0.459-0.043-0.891-0.113-0.753-0.751c2.161-0.468,5.087-0.173,6.761-1.126
					C246.874,169.247,242.086,168.843,242.099,172.121z M200.4,170.994c0.774,0.778,1.906-0.002,1.879-1.126
					C201.402,169.992,200.661,170.251,200.4,170.994z M267.638,172.121c2.696-0.331,3.351-0.579,5.258-1.878
					c-0.909-0.72-3.02-0.237-4.508-0.376C268.907,171.387,267.573,171.054,267.638,172.121z M193.263,172.121
					c1.231-0.021,1.436-1.069,3.005-0.751C196.147,169.544,192.78,170.132,193.263,172.121z M82.443,173.623
					c4.262,0.12,5.557,3.208,9.766,3.38c0.959-0.478-0.348-1.838,0.376-1.878c1.38,0.261,2.857,0.649,4.133,0
					C95.219,171.79,84.111,168.611,82.443,173.623z M147.807,173.247c0.502,0.537,2.128,0.537,2.63,0
					c-0.288-1.214-1.038-1.964-2.255-2.253C148.192,171.88,147.537,172.1,147.807,173.247z M233.835,172.121
					c1.197-0.321,1.426,0.328,1.877,0.751c0.315-0.435,0.496-1.007,0.376-1.878C234.759,170.791,234.153,171.313,233.835,172.121z
					 M250.738,172.121c0.506,0.513,2.626,0.716,2.631-0.376C252.86,171.232,250.746,171.029,250.738,172.121z M61.03,172.871
					c0.113-0.989-0.52-1.232-1.502-1.126C59.15,172.999,60.048,172.976,61.03,172.871z M210.92,174
					c2.593-0.171,4.405,0.978,4.883-1.504c-1.478-0.038-4.188-0.803-4.883-0.376C212.02,172.439,210.694,173.33,210.92,174z
					 M217.305,174.373c0.195-0.591,1.446-2.012,0.376-2.629C217.857,172.707,216.352,173.874,217.305,174.373z M246.983,174.751
					c1.321-0.255,4.328-1.729,2.629-2.63C250.061,174.141,246.877,172.308,246.983,174.751z M255.247,175.501
					c1.952-0.801,4.109-1.397,5.255-3.005C258.493,173.241,256.381,173.883,255.247,175.501z M197.771,174.751
					c0.382-0.495,0.368-1.385,0.75-1.879C196.897,172.3,196.495,174.588,197.771,174.751z M73.052,175.501
					c1.101-0.026,1.395-0.859,1.879-1.501c-0.703-0.302-1.377-0.629-2.255-0.753C72.404,174.395,73.059,174.616,73.052,175.501z
					 M97.844,173.623c0.684,1.959,1.152,3.899,1.127,5.636c2.203-0.803,4.546-1.465,7.514-1.503c0.713,1.159,0.33,2.295,0.75,3.005
					c1.183,0.43,0.915-0.59,1.504-0.751c1.209,1.177,3.971,2.782,5.634,2.254c-1.769-1.077-2.318-4.443-4.882-2.63
					c-0.281-1.156,1.031-0.721,0.751-1.878c-4.824-0.213-6.955-3.103-10.895-2.63c0.005-0.746,1.025-0.478,0.752-1.503
					C98.998,173.284,98.945,173.284,97.844,173.623z M189.507,175.878c0.765,0.109,0.736,1.016,1.502,1.125
					c-0.015-1.469-0.219-2.176,1.126-1.502c0-0.751,0-1.501,0-2.254C190.663,173.527,190.115,174.733,189.507,175.878z M239.469,174
					c0.996-0.007,2.211,0.206,2.254-0.753C240.949,173.475,239.114,172.643,239.469,174z M234.21,177.003c0,0.878,0,1.753,0,2.63
					c-2.025,0.229-2.141,2.366-4.508,2.255c-0.267-0.937,1.654-1.543,0.376-2.255c-0.234,1.018-1.57,0.936-1.504,2.255
					c2.034,3.365,7.905,0.758,10.518-2.255c2.276-2.621,4.943-4.862,7.513-6.01C242.959,173.765,238.53,176.292,234.21,177.003z
					 M186.501,175.126c0-0.501,0-1.002,0-1.503C185.055,173.327,185.055,175.422,186.501,175.126z M204.909,174.373
					c0.051,0.702,0.246,1.258,0.751,1.504c0.376-0.749,1.662-0.594,1.502-1.878C206.015,173.728,205.794,174.383,204.909,174.373z
					 M234.21,175.878c1.448-0.43,3.524-0.234,3.756-1.878C236.615,174.526,234.523,174.313,234.21,175.878z M78.311,177.003
					c1.593,0.569,4.792,0.569,6.386,0c-0.043-0.934-0.704-1.161,0-1.878C82.888,174.271,76.392,173.289,78.311,177.003z
					 M225.946,174.751c-0.501,0-1.002,0-1.502,0C223.847,176.496,226.384,176.055,225.946,174.751z M227.072,176.628
					c1.545-0.083,2.46-0.796,3.381-1.503C228.47,174.771,228.029,175.957,227.072,176.628z M224.067,177.381
					c-1.24-0.402-3.668-1.574-4.883-0.752C220.425,177.257,222.563,179.294,224.067,177.381z M262.381,177.756
					c1.235-0.268,2.825-0.177,3.002-1.502C263.993,176.362,262.804,176.678,262.381,177.756z M92.209,177.381
					c1.175,1.578,2.796,2.714,4.883,3.38c0.986-0.661,0.986-2.719,0-3.38C94.703,177.637,93.304,177.439,92.209,177.381z
					 M76.432,181.888c1.164-0.738-1.292-1.879-0.376-2.255c0.932,0.056,1.823,0.07,1.879-0.751c-0.38-1.248-2.008-1.246-3.757-1.127
					C75.065,179.633,74.119,181.24,76.432,181.888z M228.2,179.258c1.668,0.04,2.204-1.052,4.131-0.751
					C231.886,176.894,228.59,178.369,228.2,179.258z M83.57,180.76c1.619,2.014,4.811,2.453,7.89,3.007
					c0.511-1.049,0.91-1.396,2.628-1.879c-2.112-1.145-3.196-3.315-6.011-3.757c-0.059,0.442,0.065,1.067-0.376,1.127
					C86.688,177.531,83.84,179.362,83.57,180.76z M255.247,179.258c1.246,0.126,3.146,0.621,3.379-1.127
					C257.439,178.444,255.471,177.981,255.247,179.258z M78.686,178.883c-0.135,1.472,2.996,0.773,2.63-0.376
					C80.096,178.289,79.568,178.762,78.686,178.883z M144.803,180.76c1.017,0.233,0.935,1.57,2.254,1.503
					c0.499-1.168,0.348-3.143-0.752-3.756C146.071,179.525,144.736,179.443,144.803,180.76z M243.604,180.385
					c1.976-0.402,3.906-0.851,5.258-1.878C246.822,178.847,244.828,179.233,243.604,180.385z M249.612,180.01
					c0.923-0.331,2.164-0.339,2.253-1.503C250.944,178.837,249.699,178.845,249.612,180.01z M248.111,182.638
					c2.085-0.673,6.31-1.193,5.635-3.38C252.185,180.703,249.615,181.139,248.111,182.638z M266.137,179.258
					c-0.753,0-1.504,0-2.253,0C263.7,180.591,266.458,180.915,266.137,179.258z M79.813,181.137
					c1.328,0.196,2.337,0.452,3.006-0.752c-0.294-0.082-0.439-0.313-0.376-0.751C81.214,179.783,80.014,179.96,79.813,181.137z
					 M100.475,180.01c-0.121,0.87,0.06,1.442,0.374,1.879c1.308-0.57,3.646-0.113,3.383-2.255
					C102.227,179.763,102.622,180.585,100.475,180.01z M223.691,182.638c1.038,1.29,3.474-0.893,3.757,0.752
					c-0.921,1.332-2.369,2.14-4.883,1.878c1.243,1.636,6.045,0.617,7.513,0c-0.878-2.125-2.715-3.294-3.382-5.635
					C225.205,180.147,225.483,182.426,223.691,182.638z M245.855,182.638c0.355-0.794,2.635-1.594,1.504-2.628
					C246.866,180.665,244.64,181.52,245.855,182.638z M172.601,186.771c-1.447-3.003,1.514-3.361,1.504-6.011
					c-0.481-0.019-0.52-0.481-1.128-0.376C172.928,182.371,169.968,185.64,172.601,186.771z M132.03,181.512
					c-0.675,0.67,0.434,1.472,0.751,2.256c0.772-0.858,1.959-1.299,3.757-1.129C136.171,180.317,134.109,181.687,132.03,181.512z
					 M149.311,183.39c-0.661-0.341-0.62-1.383-1.504-1.502C147.526,182.956,148.608,184.545,149.311,183.39z M241.347,183.39
					c0.579-0.674,2.2-0.303,2.257-1.502c-0.629,0-1.254,0-1.881,0C242.219,182.829,240.238,183.064,241.347,183.39z M254.872,183.39
					c1.64,0.25,4.879-0.573,3.003-1.502C257.239,182.754,255.368,182.385,254.872,183.39z M104.232,184.142
					c0.871-0.11,1.759-0.943,1.501,0.752c-1.425-0.366-2.956-1.204-4.508-0.376c-0.806,3.622,7.461,3.627,5.635,1.126
					c2.083-0.951,3.424,1.088,4.884,0.375c-0.552-0.718-2.947-1.535-2.254-2.252c2.707,0.548,3.344,3.165,6.386,3.379
					c0.196-0.554,0.555-0.946,0.751-1.502C113.535,184.718,107.122,180.416,104.232,184.142z M120.761,184.142
					c1.353,0.102,2.598,0.094,2.253-1.504C121.899,182.777,121.161,183.291,120.761,184.142z M123.39,184.518
					c-0.339,1.517,3.558,1.367,1.501,0.376c1.798-0.42,1.585,1.168,3.381,0.75c0.574-1.055,2.534-0.722,2.63-2.254
					c-1.101-0.191-2.117,1.192-1.879-0.752C127.003,183.121,125.668,184.291,123.39,184.518z M89.956,186.395
					c-0.617-2.891-6.185-2.824-8.265-3.005C83.106,185.732,86.876,185.721,89.956,186.395z M144.427,184.894
					c0.264-1.391-1.317-0.939-1.878-1.504C142.614,184.497,143.413,185.864,144.427,184.894z M100.099,184.518
					c-0.935,0.04-1.162,0.703-1.879,0C97.569,186.314,100.613,185.882,100.099,184.518z M233.46,186.771
					c0.679-0.947,2.186-1.067,2.628-2.253C234.956,184.778,232.179,185.344,233.46,186.771z M139.167,186.771
					c-0.058-1.569-1.844-1.411-3.004-1.877C136.357,186.327,137.502,186.808,139.167,186.771z M237.215,186.019
					c0.958-0.043,1.933-0.07,1.878-1.125C238.017,184.818,237.044,184.845,237.215,186.019z M144.803,187.523
					c1.463-1.623,1.108-0.495,2.629,0.375c0.103-1.605-1.09-1.914-1.879-2.63C145.22,185.938,144.506,186.222,144.803,187.523z
					 M229.327,192.783c1.252-0.73,2.719-0.04,4.133-0.377c2.735-0.654,7.342-4.366,6.761-5.635
					C235.541,187.728,231.083,188.904,229.327,192.783z M138.041,188.649c0.041-1.189-2.7-1.529-3.382-0.751
					C135.085,188.54,137.459,190.594,138.041,188.649z M121.512,187.898C122.69,190.387,125.95,188.944,121.512,187.898
					L121.512,187.898z M189.131,188.274c-0.281,1.431,2.433,0.812,1.879-0.376C189.947,187.588,190.036,188.428,189.131,188.274z
					 M219.559,188.274c0.244,1.697,2.917,0.125,3.381-0.376C221.572,187.782,220.496,187.959,219.559,188.274z M227.823,190.153
					c1.849,0.095,3.042-0.466,3.382-1.879C229.673,187.914,227.788,188,227.823,190.153z M136.538,190.153
					c-1.795,0.223-2.766-3.292-4.131-1.128C133.863,189.085,135.407,191.012,136.538,190.153z M120.761,188.649
					c-0.983-0.104-1.617,0.138-1.504,1.129C119.902,190.455,120.734,189.662,120.761,188.649z M187.628,190.904
					c1.688,0.059,2.951-0.305,3.757-1.126c-1.929,0.3-2.853-0.402-4.132-0.752C186.942,190.087,187.782,189.998,187.628,190.904z
					 M209.792,190.153c0.932,0.054,1.822,0.069,1.878-0.751C211.109,188.806,209.529,188.85,209.792,190.153z M215.05,194.661
					c2.587-1.579,7.674-2.551,8.266-4.883C219.172,188.516,216.346,191.821,215.05,194.661z M116.251,190.529
					c0.747,0.004,0.479,1.024,1.504,0.751c0-0.376,0-0.751,0-1.126C116.815,190.105,116.579,189.434,116.251,190.529z
					 M226.321,192.406c1.403,0.151,2.204-0.299,2.254-1.502c-0.698-0.303-1.518-0.486-1.879-1.126
					C226.179,190.261,226.325,191.408,226.321,192.406z M118.506,191.655c0.717,0.161,0.68,1.073,1.878,0.751
					C120.533,191.202,118.786,190.262,118.506,191.655z M175.984,191.279c-0.625-0.629-2.207-0.299-3.383-0.376
					C172.528,192.477,175.578,192.291,175.984,191.279z M198.147,192.783c1.634,0.005,3.378,0.124,4.508-0.377
					C202.449,190.197,198.629,191.783,198.147,192.783z M105.357,194.661c2.229-0.152,3.675-1.085,4.885-2.255
					C108.435,191.605,105.483,192.562,105.357,194.661z M167.717,193.908c1.597-0.969,2.04,0.454,2.255,1.879
					c0.562-0.065,1.386,0.135,1.503-0.376c-1.017-0.985-0.954-3.055-2.63-3.381C168.728,192.916,167.54,192.728,167.717,193.908z
					 M212.422,193.158c-0.664-0.338-1.097-0.907-1.878-1.127C210.361,193.001,211.871,194.16,212.422,193.158z M127.898,193.908
					c1.413-0.717,1.589-0.717,3.005,0C131.299,192.135,127.33,191.556,127.898,193.908z M221.439,195.411
					c2.839,0.212,3.696-1.563,5.633-2.253C224.543,191.93,221.939,192.716,221.439,195.411z M188.379,195.411
					c1.198,0.326,2.365-2.552,0.751-2.628C189.068,193.846,188.441,194.347,188.379,195.411z M172.977,194.661
					c0.471,1.755,0.446,3.147,0,4.508c2.813,0.934,1.524-2.234,3.757-1.879c0.105-1.977-0.397-2.228,0-3.756
					C174.835,193.261,173.892,193.947,172.977,194.661z M200.775,199.542c1.336-0.04,1.367-1.388,3.007-1.126
					c-0.589,0.79-1.56,1.195-1.879,2.255c-1.303,0.2-3.565-0.559-3.757,0.751c1.817-0.201,1.429,0.319,0.751,1.127
					c4.37-2.392,10.086-3.438,12.023-8.266C206.888,192.569,203.647,197.645,200.775,199.542z M192.136,197.29
					c1.726,1.578,3.588-0.477,3.38-3.006C193.527,194.423,192.947,195.974,192.136,197.29z M198.147,195.788
					c0.299-0.829,1.765-0.488,1.878-1.504C198.958,194.125,197.102,195.078,198.147,195.788z M168.094,198.416
					c1.087-0.165,1.713-0.791,1.879-1.878c-1.351-0.402-2.461-1.044-3.382-1.878C166.561,196.445,168.623,196.135,168.094,198.416z
					 M136.538,199.168c0.501,0,1.002,0,1.504,0c-0.029-1.257,2.004-2.812,0.376-3.381
					C137.714,196.839,136.611,197.489,136.538,199.168z M115.501,197.665c0.94,0.047,1.176,0.717,1.504-0.376
					c-0.766-0.111-1-0.751-1.504-1.126C115.501,196.664,115.501,197.166,115.501,197.665z M167.341,198.792
					c0.016-1.143,0.219-2.471-1.126-2.254C166.224,197.657,166.18,198.827,167.341,198.792z M141.046,199.168
					c0.055-0.931,0.069-1.823-0.752-1.879C139.721,197.829,139.928,199.248,141.046,199.168z M208.666,202.173
					c3.006-0.665,7.085-2.126,7.137-4.508C211.334,197.079,210.361,199.986,208.666,202.173z M110.242,199.168
					c-0.159-0.974-1.198-0.687-2.631-1.126C107.367,199.538,109.04,199.118,110.242,199.168z M228.2,198.792
					c0.561,0.597,2.142,0.55,1.879-0.75C229.146,197.987,228.255,197.971,228.2,198.792z M118.131,200.671
					c1.18,0.178,0.993-1.011,1.878-1.129c0.439,0.855-0.198,1.126,1.127,1.504c-0.178-1.7-1.077-2.678-3.005-2.63
					C118.131,199.168,118.131,199.919,118.131,200.671z M244.728,200.295c1.142-0.471,1.461-0.286,2.254,0.376
					c-0.611-1.986,2.025-0.73,1.879-2.255C246.931,198.492,245.432,198.996,244.728,200.295z M249.612,199.168
					c1.08,0.078,1.907-0.095,2.253-0.752C251.091,198.644,249.257,197.811,249.612,199.168z M188.379,202.55
					c0.145-0.923,2.539-2.957,0.751-3.381C189.275,200.46,187.244,201.51,188.379,202.55z M164.338,199.919
					c0.172,1.455,0.972,2.284,2.628,2.254c0.021-0.481,0.482-0.52,0.375-1.127C166.626,200.412,165.559,198.887,164.338,199.919z
					 M127.522,200.295c0.288,1.966,2.288,2.22,4.508,2.254C131.709,200.762,129.176,199.535,127.522,200.295z M170.723,202.173
					c1.058-0.07,1.6-0.653,1.504-1.878c-0.509-0.118-0.717-0.534-1.504-0.376C170.209,200.4,170.209,201.692,170.723,202.173z
					 M237.967,201.046c0.005,0.497,0.659,0.343,0.751,0.752c1.355-0.149,2.393-0.611,2.629-1.879
					C240.158,200.232,238.191,199.768,237.967,201.046z M249.235,200.671c0.779-0.224,2.469,0.465,2.629-0.376
					C251.359,199.783,249.245,199.58,249.235,200.671z M172.601,202.926c2.418,0.288,3.591-0.667,4.133-2.255
					C175.112,199.833,171.781,200.111,172.601,202.926z M190.258,202.173c1.663,0.161,2.377-0.625,2.628-1.878
					C191.071,199.981,190.357,200.769,190.258,202.173z M227.823,201.422c1.118-0.015,3.004,1.118,3.382-0.376
					C230.352,200.798,228.054,200.075,227.823,201.422z M115.877,204.053c0.351-0.318,0.801-2.397,0-2.631
					C115.226,202.266,115.635,203.897,115.877,204.053z M123.765,202.55c1.623-0.245,2.106,0.649,3.005,1.126
					C128.141,202.097,124.246,201.029,123.765,202.55z M120.384,204.053c0.178-1.181-0.467-1.536-1.126-1.88
					C119.183,203.249,119.211,204.223,120.384,204.053z M196.644,204.053c0.339-0.663,1.382-0.622,1.503-1.504
					C197.451,201.487,195.945,203.814,196.644,204.053z M180.867,213.443c1.034-2.526,2.911-7.605,1.126-10.517
					C181.802,206.368,179.358,209.552,180.867,213.443z M100.849,204.804c0.767,0.235,0.107,1.897,1.504,1.501
					c0.041-1.335,1.389-1.364,1.126-3.005C101.886,203.085,101.98,204.556,100.849,204.804z M105.733,204.804
					c0.06-0.443-0.063-1.067,0.376-1.128c0.431,1.705,1.646,4.603,3.381,3.757c-1.139-0.459,0.265-1.433,0.374-1.879
					c-1.028-0.724-2.407-1.098-3.005-2.254C105.268,202.761,104.266,204.449,105.733,204.804z M146.304,203.676
					c-0.061,1.689,2.187-0.771,1.503,1.879c0.877,0,1.753,0,2.63,0C150.455,203.473,148.089,202.833,146.304,203.676z
					 M188.004,205.554c1.733,0.105,2.025-1.231,2.63-2.254C188.899,203.194,188.609,204.532,188.004,205.554z M116.628,205.179
					c0.71,0.745,1.774,0.182,2.629,0C119.396,203.264,116.49,203.264,116.628,205.179z M130.152,208.184
					c-2.254,0.25-3.433-0.573-4.508-1.502c-0.542,0.583-0.79,1.463-1.127,2.253c5.281,1.894,12.026-0.9,16.905-1.879
					c-1.897-1.105-3.63-2.38-5.636-3.38c0.383,1.9-1.132,3.857-1.879,3.38c0.182-0.853,0.745-1.917,0-2.628
					c-1.575-0.05-2.098,0.683-3.38,0C129.724,205.806,130.029,207.659,130.152,208.184z M171.098,204.427
					c-0.642-0.86-2.868-0.138-4.132-0.374c0.571,1.75,3.655,2.584,1.879,4.506c2.56-0.318,3.596-2.162,4.508-4.132
					c-1.768-0.391-1.889,0.866-2.63,1.503C170.639,205.22,171.147,205.101,171.098,204.427z M118.131,208.184
					c0.317-0.811,2.394,0.14,2.631-0.751c-1.434-0.456-3.948-1.799-5.636-0.751C116.954,206.356,116.866,207.946,118.131,208.184z
					 M119.258,209.311c-1.524-0.227-2.41-1.097-4.132-1.126C114.781,210.1,118.999,210.369,119.258,209.311z M118.131,211.565
					c1.406-0.096,2.415-0.59,3.005-1.502C119.994,210.422,118.077,210.008,118.131,211.565z M166.966,214.945
					c-0.066-1.185-0.264-2.239-1.503-2.253C165.793,213.614,165.801,214.857,166.966,214.945z M192.511,214.571
					c2.285-0.094,4.918,0.159,6.01-1.128C195.835,213.965,193.081,212.11,192.511,214.571z M188.755,216.45
					c1.329,0.423,2.283-1.434,1.504-1.879C189.669,215.11,188.95,215.517,188.755,216.45z M188.755,218.703
					c2.075,0.373,8.028,2.271,8.265-1.127c-1.06-1.22-1.035,1.753-2.254,0.374c0.232-0.894,1.637-0.615,1.127-2.253
					C192.5,214.252,190.909,217.674,188.755,218.703z M177.11,223.21c1.657-0.752,2.313-6.231,0.375-7.137
					C177.459,218.551,177.661,221.258,177.11,223.21z"/>
			</g>
		</g>
	</g>
</g>
</svg>
